<svg width="110" height="110" viewBox="0 0 110 110" fill="none" xmlns="http://www.w3.org/2000/svg">
<g clip-path="url(#clip0_332_1783)">
<circle cx="55" cy="55" r="55" fill="#DBDBDB"/>
<rect width="1.71198" height="47.4718" rx="0.855992" transform="matrix(0.837415 0.546567 -0.453954 0.891025 75.2146 26.7251)" fill="#72706E"/>
<path d="M73.0442 31.3524C73.4961 30.4744 74.7513 30.4744 75.2032 31.3524L94.2961 68.4514C94.7119 69.2594 94.1253 70.221 93.2166 70.221H55.0309C54.1222 70.221 53.5355 69.2594 53.9514 68.4514L73.0442 31.3524Z" fill="#AEA8A8"/>
<path d="M35.1292 30.8373C35.1292 30.502 35.4009 30.2302 35.7362 30.2302H73.7321C74.0673 30.2302 74.3391 30.502 74.3391 30.8373V69.6139C74.3391 69.9492 74.0673 70.221 73.7321 70.221H35.7362C35.4009 70.221 35.1292 69.9492 35.1292 69.6139V30.8373Z" fill="#AEA8A8"/>
<path d="M34.5895 30.7914C34.8154 30.3524 35.443 30.3524 35.669 30.7914L55.5703 69.4582C55.7782 69.8622 55.4849 70.343 55.0306 70.343H15.2279C14.7735 70.343 14.4802 69.8622 14.6881 69.4582L34.5895 30.7914Z" fill="white"/>
<ellipse cx="31.2513" cy="55.8343" rx="1.72352" ry="2.19461" fill="black"/>
<ellipse cx="38.9974" cy="55.6453" rx="1.72352" ry="2.19461" fill="black"/>
<ellipse cx="43.316" cy="61.1987" rx="2.58527" ry="1.21923" fill="#FFB199"/>
<ellipse cx="26.0806" cy="61.1987" rx="2.58527" ry="1.21923" fill="#FFB199"/>
<path d="M36.3273 65.7792C35.8819 66.4219 34.9654 66.4977 34.4421 65.9353L32.8308 64.2032C32.1424 63.4632 32.6297 62.2381 33.6459 62.154L36.6289 61.907C37.6451 61.8229 38.2848 62.9547 37.6988 63.8001L36.3273 65.7792Z" fill="#E06868"/>
<rect width="1.71198" height="51.3115" rx="0.855992" transform="matrix(0.837415 0.546567 -0.453954 0.891025 36.4932 26)" fill="#72706E"/>
<rect width="1.60887" height="51.4274" rx="0.804437" transform="matrix(-0.833152 0.553044 0.460059 0.887888 34.3 26.1504)" fill="#72706E"/>
<rect width="1.60887" height="49.8471" rx="0.804437" transform="matrix(-0.833152 0.553044 0.460059 0.887888 73.332 26.5332)" fill="#72706E"/>
<rect width="1.09997" height="39.6033" rx="0.549983" transform="matrix(0.0689073 0.997623 0.999983 -0.00589609 34.6086 29.4324)" fill="#72706E"/>
</g>
<defs>
<clipPath id="clip0_332_1783">
<rect width="110" height="110" fill="white"/>
</clipPath>
</defs>
</svg>
