<svg width="19" height="21" viewBox="0 0 19 21" fill="none" xmlns="http://www.w3.org/2000/svg">
<path d="M3.00427 8.05676C2.87334 7.71132 2.51177 7.51092 2.15125 7.584C1.79073 7.65708 1.5381 7.98197 1.55525 8.35048C1.68866 11.217 1.92581 13.2718 2.44419 14.8358C2.97815 16.4467 3.80573 17.5249 5.05139 18.4479C5.09231 18.4782 5.13617 18.5043 5.18231 18.5257C7.43115 19.5721 9.19573 20.0124 10.8646 19.7299C12.5261 19.4487 13.9534 18.4727 15.5741 17.0383C15.6117 17.0049 15.6459 16.9678 15.6762 16.9275C16.8627 15.3454 17.4742 13.8174 17.2669 11.8531C17.0674 9.96368 16.1148 7.74441 14.4227 4.74049C14.4188 4.73355 14.4147 4.72668 14.4106 4.71987C14.3375 4.59913 14.2475 4.46923 14.1365 4.36004C14.0386 4.26382 13.8261 4.08611 13.5113 4.07418C13.1477 4.06039 12.9088 4.27014 12.7934 4.42006C12.6862 4.55933 12.6289 4.71188 12.596 4.81537C12.5275 5.03113 12.4866 5.29793 12.4559 5.54878C12.426 5.79302 12.4005 6.07257 12.3747 6.35543C12.3728 6.37529 12.371 6.39516 12.3692 6.41504C12.3548 6.57232 12.3401 6.73116 12.3242 6.88954C12.2254 6.70674 12.1192 6.52836 12.0079 6.35516C11.3371 5.31092 10.4214 4.35911 9.56354 3.60905C8.7081 2.86112 7.86887 2.27808 7.32142 1.986C7.18474 1.91307 7.04336 1.84587 6.91132 1.80063C6.84694 1.77857 6.75899 1.75266 6.66022 1.74065C6.58878 1.73197 6.37108 1.71036 6.14659 1.83577C6.01586 1.90879 5.89598 2.02541 5.82126 2.18502C5.75024 2.33672 5.74148 2.48098 5.74954 2.58433C5.76402 2.77004 5.83921 2.91096 5.87461 2.97273C5.95585 3.11448 6.07451 3.25089 6.18697 3.36858C6.22565 3.40905 6.33091 3.58847 6.39534 4.02321C6.4551 4.4265 6.46453 4.94355 6.42012 5.52564C6.33109 6.69249 6.03455 8.01177 5.60964 9.01633C5.39618 9.52097 5.16713 9.90579 4.94695 10.1512C4.72157 10.4024 4.58507 10.4242 4.54358 10.4238C4.50957 10.4234 4.33506 10.4063 4.03261 10.0391C3.73181 9.67399 3.38015 9.04848 3.00427 8.05676ZM6.42948 3.2195C6.42946 3.21947 6.43031 3.21972 6.43208 3.22031L6.42948 3.2195ZM14.0303 5.26142C14.0304 5.2615 14.0297 5.26327 14.0283 5.26648C14.0296 5.26294 14.0303 5.26134 14.0303 5.26142Z" stroke="#767676" stroke-width="1.5" stroke-linecap="round" stroke-linejoin="round"/>
</svg>
