<svg width="166" height="16" viewBox="0 0 166 16" fill="none" xmlns="http://www.w3.org/2000/svg">
<path d="M11.7306 14.036V1.492H10.6246V14.036H11.7306ZM9.28065 1.786H8.20265V6.266H6.49465V7.274H8.20265V13.378H9.28065V1.786ZM5.82265 9.822V3.998H6.85865V3.074H1.11865V3.998H2.15465V9.976C1.91665 9.99 1.69265 9.99 1.48265 9.99H0.880648L0.992648 10.942C2.61665 10.942 5.26265 10.9 7.20865 10.522L7.13865 9.682C6.73265 9.738 6.27065 9.78 5.82265 9.822ZM3.20465 9.948V3.998H4.77265V9.892C4.22665 9.934 3.72265 9.934 3.20465 9.948ZM24.1616 14.064V1.478H23.0136V14.064H24.1616ZM17.5396 2.444C15.6776 2.444 14.3476 4.152 14.3476 6.826C14.3476 9.5 15.6776 11.208 17.5396 11.208C19.4016 11.208 20.7316 9.5 20.7316 6.826C20.7316 4.152 19.4016 2.444 17.5396 2.444ZM17.5396 3.48C18.7576 3.48 19.6256 4.796 19.6256 6.826C19.6256 8.87 18.7576 10.186 17.5396 10.186C16.3076 10.186 15.4396 8.87 15.4396 6.826C15.4396 4.796 16.3076 3.48 17.5396 3.48ZM37.0405 14.036V1.492H35.8925V14.036H37.0405ZM31.2445 5.314V3.718H34.1985V2.766H27.1845V3.718H30.0965V5.314C30.0965 7.484 28.5705 9.836 26.7645 10.704L27.4365 11.628C28.8365 10.928 30.1105 9.304 30.6705 7.484C31.2725 9.206 32.5045 10.648 33.9605 11.32L34.6045 10.396C32.7565 9.612 31.2445 7.442 31.2445 5.314ZM41.0714 2.654H48.4354V3.676H41.0994V6.364H49.7934V5.538H42.2334V4.46H49.5694V1.842H41.0714V2.654ZM51.0254 8.184V7.316H39.6434V8.184H51.0254ZM50.0034 13.042H42.1634V11.88H49.6114V9.206H41.0014V10.032H48.4774V11.082H41.0294V13.868H50.0034V13.042ZM62.4571 8.38L63.0031 7.498C61.1551 6.966 59.9371 5.58 59.9371 4.082V3.872H62.7091V2.948H59.9371V1.422H58.7891V2.948H56.0031V3.872H58.7891V4.082C58.7891 5.72 57.5011 7.162 55.6531 7.722L56.2131 8.632C57.6831 8.142 58.8311 7.162 59.3771 5.86C59.9371 7.036 61.0011 7.946 62.4571 8.38ZM67.2591 5.538V4.586H65.3971V1.492H64.2491V8.772H65.3971V5.538H67.2591ZM62.0931 10.368H65.6071V9.458H57.3891V10.368H60.8891C60.7071 11.684 58.9431 12.804 56.9131 13.098L57.3191 13.98C59.1811 13.686 60.7771 12.79 61.4911 11.53C62.2051 12.776 63.8291 13.7 65.6631 13.994L66.0971 13.112C64.0671 12.776 62.3171 11.67 62.0931 10.368ZM74.202 6.042C76.96 6.042 78.612 5.286 78.612 3.872C78.612 2.458 76.96 1.688 74.202 1.688C71.444 1.688 69.792 2.458 69.792 3.872C69.792 5.286 71.444 6.042 74.202 6.042ZM74.202 2.556C76.288 2.556 77.436 3.032 77.436 3.872C77.436 4.712 76.288 5.188 74.202 5.188C72.116 5.188 70.968 4.712 70.968 3.872C70.968 3.032 72.116 2.556 74.202 2.556ZM79.886 7.82V6.896H68.518V7.82H79.886ZM78.808 13H71.052V11.726H78.43V8.898H69.89V9.766H77.296V10.886H69.932V13.896H78.808V13ZM94.8738 7.19L95.3498 6.266C93.0678 5.93 90.8278 4.376 90.8278 2.626V1.926H89.6238V2.626C89.6238 4.432 87.4258 5.93 85.1298 6.266L85.5918 7.19C87.5378 6.854 89.4418 5.776 90.2258 4.25C91.0518 5.776 92.9138 6.854 94.8738 7.19ZM90.7718 9.5H95.9098L95.8958 8.548H84.5558V9.5H89.6238V14.05H90.7718V9.5ZM107.174 5.37H109.736V8.128H110.898V1.492H109.736V4.432H107.174C106.95 2.976 105.662 2.038 103.982 2.038C102.12 2.038 100.748 3.2 100.748 4.922C100.748 6.644 102.12 7.82 103.982 7.82C105.718 7.82 106.95 6.84 107.174 5.37ZM103.982 6.868C102.736 6.868 101.84 6.042 101.84 4.922C101.84 3.788 102.736 2.99 103.982 2.99C105.228 2.99 106.124 3.788 106.124 4.922C106.124 6.042 105.228 6.868 103.982 6.868ZM109.89 9.822V8.758H108.77V9.822C108.77 11.11 107.986 12.482 106.488 13.112L107.076 13.98C108.196 13.49 108.924 12.636 109.33 11.614C109.708 12.678 110.464 13.49 111.598 13.98L112.172 13.112C110.674 12.51 109.89 11.152 109.89 9.822ZM106.334 8.842H105.27V10.424H103.058V8.842H101.98V13.868H106.334V8.842ZM103.058 11.278H105.27V12.972H103.058V11.278ZM123.72 6.322L124.14 5.398C121.9 5.132 119.702 3.704 119.702 2.178V1.618H118.526V2.178C118.526 3.774 116.328 5.132 114.074 5.398L114.494 6.322C116.468 6.028 118.316 5.034 119.114 3.634C119.912 5.034 121.774 6.028 123.72 6.322ZM124.784 8.128V7.204H113.416V8.128H124.784ZM123.3 8.996H122.166V10.466H115.992V8.996H114.858V13.868H123.3V8.996ZM115.992 11.348H122.166V12.944H115.992V11.348ZM136.599 14.022V1.478H135.451V14.022H136.599ZM128.241 9.808V2.696H127.093V10.788H128.129C130.145 10.788 132.091 10.648 134.289 10.2L134.163 9.22C132.077 9.654 130.159 9.808 128.241 9.808ZM148.848 7.386H150.92V6.434H148.848V1.478H147.7V14.064H148.848V7.386ZM140.868 9.948V3.634H145.558V2.682H139.72V10.928H140.714C143.066 10.928 144.746 10.858 146.65 10.48L146.524 9.528C144.718 9.864 143.108 9.948 140.868 9.948ZM153.187 11.88H151.913V13.196H153.187V11.88ZM159.979 4.922H158.705V6.238H159.979V4.922ZM159.979 10.886H158.705V12.202H159.979V10.886ZM164.351 15.002L165.149 14.624C163.917 12.594 163.357 10.34 163.357 7.89C163.357 5.44 163.917 3.186 165.149 1.156L164.351 0.791999C163.063 2.878 162.293 5.146 162.293 7.89C162.293 10.648 163.063 12.916 164.351 15.002Z" fill="#767676"/>
</svg>
