<svg width="24" height="24" viewBox="0 0 24 24" fill="none" xmlns="http://www.w3.org/2000/svg">
<path d="M18 11.5C18.0034 12.8199 17.6951 14.1219 17.1 15.3C16.3944 16.7118 15.3098 17.8992 13.9674 18.7293C12.6251 19.5594 11.0782 19.9994 9.5 20C8.18013 20.0035 6.87812 19.6951 5.7 19.1L0 21L1.9 15.3C1.30493 14.1219 0.996559 12.8199 1 11.5C1.00061 9.92179 1.44061 8.37488 2.27072 7.03258C3.10083 5.69028 4.28825 4.6056 5.7 3.90003C6.87812 3.30496 8.18013 2.99659 9.5 3.00003H10C12.0843 3.11502 14.053 3.99479 15.5291 5.47089C17.0052 6.94699 17.885 8.91568 18 11V11.5Z" fill="#F2C94C"/>
</svg>
