<svg width="32" height="32" viewBox="0 0 32 32" fill="none" xmlns="http://www.w3.org/2000/svg">
<path d="M16 1H6C3.23858 1 1 3.23858 1 6V26C1 28.7614 3.23858 31 6 31H16" stroke="#767676" stroke-width="2" stroke-linecap="round"/>
<path d="M11 15C10.4477 15 10 15.4477 10 16C10 16.5523 10.4477 17 11 17L11 15ZM31.7071 16.7071C32.0976 16.3166 32.0976 15.6834 31.7071 15.2929L25.3431 8.92893C24.9526 8.53841 24.3195 8.53841 23.9289 8.92893C23.5384 9.31946 23.5384 9.95262 23.9289 10.3431L29.5858 16L23.9289 21.6569C23.5384 22.0474 23.5384 22.6805 23.9289 23.0711C24.3195 23.4616 24.9526 23.4616 25.3431 23.0711L31.7071 16.7071ZM11 17L31 17L31 15L11 15L11 17Z" fill="#767676"/>
</svg>
