<svg style="transition: .3s" width="33" height="34" viewBox="0 0 33 34" fill="none" xmlns="http://www.w3.org/2000/svg">
<path d="M17 2H7C4.23858 2 2 4.23858 2 7V27C2 29.7614 4.23858 32 7 32H17" fill="var(--background-color)" stroke-width="3" stroke-linecap="round"/>
<path d="M12 16C11.4477 16 11 16.4477 11 17C11 17.5523 11.4477 18 12 18L12 16ZM32.7071 17.7071C33.0976 17.3166 33.0976 16.6834 32.7071 16.2929L26.3431 9.92893C25.9526 9.53841 25.3195 9.53841 24.9289 9.92893C24.5384 10.3195 24.5384 10.9526 24.9289 11.3431L30.5858 17L24.9289 22.6569C24.5384 23.0474 24.5384 23.6805 24.9289 24.0711C25.3195 24.4616 25.9526 24.4616 26.3431 24.0711L32.7071 17.7071ZM12 18L32 18L32 16L12 16L12 18Z" />
</svg>
