<svg width="24" height="24" viewBox="0 0 24 24" fill="none" xmlns="http://www.w3.org/2000/svg">
<path d="M20.9999 12.2069C20.9999 11.6016 20.9463 11.0269 20.8543 10.4675H12.1953V13.9234H17.1532C16.9309 15.0575 16.2796 16.0154 15.3141 16.6667V18.9655H18.2719C20.0037 17.364 20.9999 15.0039 20.9999 12.2069Z" fill="#4285F4"/>
<path d="M12.1952 21.1954C14.6779 21.1954 16.7546 20.3678 18.2718 18.9655L15.3139 16.6667C14.4864 17.2184 13.4366 17.5556 12.1952 17.5556C9.79671 17.5556 7.76606 15.9387 7.03809 13.7548H3.98828V16.1226C5.49786 19.1265 8.60131 21.1954 12.1952 21.1954Z" fill="#34A853"/>
<path d="M7.03831 13.7548C6.84674 13.2031 6.74712 12.6131 6.74712 12C6.74712 11.387 6.8544 10.797 7.03831 10.2453V7.87744H3.9885C3.36015 9.11882 3 10.5135 3 12C3 13.4866 3.36015 14.8813 3.9885 16.1226L7.03831 13.7548Z" fill="#FBBC05"/>
<path d="M12.1952 6.44447C13.5515 6.44447 14.7622 6.91191 15.7201 7.82378L18.3408 5.20309C16.7546 3.7165 14.6779 2.80463 12.1952 2.80463C8.60131 2.80463 5.49786 4.87359 3.98828 7.87742L7.03809 10.2452C7.76606 8.06133 9.79671 6.44447 12.1952 6.44447Z" fill="#EA4335"/>
</svg>
