<svg width="18" height="21" viewBox="0 0 18 21" fill="none" xmlns="http://www.w3.org/2000/svg">
<path d="M3.01153 8.07659C2.88955 7.72546 2.53016 7.51491 2.16595 7.58119C1.80173 7.64747 1.54205 7.97068 1.55496 8.34166C1.65446 11.2023 1.85805 13.248 2.32797 14.8012C2.81179 16.4002 3.57655 17.4746 4.74433 18.3933C4.78625 18.4263 4.83154 18.4547 4.87942 18.4781C6.97935 19.5051 8.64916 19.9392 10.2416 19.6363C11.8197 19.3361 13.1716 18.3379 14.6969 16.8937C14.7325 16.86 14.7647 16.8228 14.793 16.7827C15.9155 15.1937 16.4944 13.6732 16.3192 11.7293C16.1499 9.85173 15.2808 7.64732 13.7231 4.66054C13.7195 4.65361 13.7158 4.64673 13.7119 4.63992C13.6448 4.52044 13.5607 4.3893 13.4546 4.27794C13.3644 4.18329 13.1481 3.98573 12.8154 3.97554C12.4337 3.96383 12.198 4.19898 12.096 4.33969C11.9968 4.47668 11.9434 4.62532 11.9126 4.72619C11.8479 4.93779 11.8077 5.20072 11.7769 5.45124C11.7469 5.69467 11.7206 5.97336 11.6939 6.25634C11.692 6.27612 11.6902 6.29592 11.6883 6.31573C11.6775 6.42968 11.6666 6.54455 11.6552 6.65959C11.5895 6.5359 11.5208 6.4143 11.4496 6.29503C10.8302 5.25644 9.97988 4.3117 9.18118 3.5679C8.38573 2.82712 7.60155 2.24882 7.08516 1.9583C6.95635 1.88583 6.81992 1.81736 6.68999 1.77096C6.62677 1.74839 6.53735 1.72085 6.43519 1.70858C6.35866 1.69939 6.13333 1.67913 5.90507 1.81677C5.59611 2.00309 5.51521 2.32109 5.52946 2.5428C5.54084 2.7197 5.60736 2.85622 5.64102 2.91963C5.71642 3.06169 5.82761 3.19858 5.93293 3.31637C5.96422 3.35136 6.06328 3.53028 6.12066 3.9711C6.17353 4.37728 6.17768 4.8972 6.1308 5.48142C6.03685 6.65228 5.74677 7.97779 5.33845 8.98984C5.13313 9.49874 4.91396 9.88787 4.70465 10.1364C4.48557 10.3965 4.36902 10.3996 4.36739 10.3996L4.36726 10.3996C4.36473 10.3996 4.33556 10.4001 4.27091 10.3596C4.19903 10.3145 4.09091 10.2227 3.95493 10.0458C3.67872 9.68641 3.35512 9.06561 3.01153 8.07659ZM13.3525 5.15361C13.3526 5.15368 13.352 5.15526 13.3508 5.15815C13.3519 5.15498 13.3525 5.15354 13.3525 5.15361Z" fill="#E73C3C" stroke="#767676" stroke-width="1.5" stroke-linecap="round" stroke-linejoin="round"/>
</svg>
