<svg style="transition: .3s" width="17" height="20" viewBox="0 0 17 20" fill="none" xmlns="http://www.w3.org/2000/svg">
<path d="M2.94906 7.77676C2.82555 7.42658 2.46578 7.21775 2.10218 7.28518C1.73858 7.35261 1.48009 7.67611 1.49371 8.04667C1.59395 10.7743 1.79337 12.7295 2.25043 14.2164C2.72168 15.7494 3.46486 16.7801 4.59604 17.6608C4.6378 17.6934 4.68286 17.7214 4.73045 17.7445C6.75792 18.7275 8.37276 19.1459 9.91363 18.8585C11.4414 18.5736 12.7481 17.6196 14.2179 16.2439C14.2538 16.2102 14.2864 16.1731 14.315 16.1329C15.3985 14.6148 15.9594 13.1561 15.7863 11.2895C15.6195 9.49061 14.7748 7.38187 13.2685 4.53203C13.2649 4.52509 13.2611 4.51821 13.2572 4.51139C13.1916 4.39618 13.1088 4.26849 13.0039 4.15963C12.9144 4.06676 12.7006 3.87383 12.3728 3.86337C11.9958 3.85133 11.7609 4.08108 11.658 4.22174C11.5587 4.35736 11.5058 4.50403 11.4757 4.60196C11.4125 4.8075 11.3738 5.06139 11.3444 5.30037C11.3157 5.53299 11.2908 5.7992 11.2655 6.06868C11.2637 6.08764 11.2619 6.10661 11.2601 6.12559C11.2528 6.20369 11.2454 6.28221 11.2378 6.36087C11.1862 6.2675 11.1329 6.17547 11.0782 6.08491C10.4773 5.0903 9.65394 4.18619 8.88177 3.47491C8.1127 2.76648 7.35428 2.21269 6.85404 1.93383C6.72925 1.86426 6.59648 1.79817 6.46966 1.7532C6.40798 1.73134 6.3203 1.70448 6.21992 1.6924C6.14552 1.68344 5.92238 1.6628 5.6953 1.79798C5.38504 1.98265 5.30184 2.30142 5.3168 2.52609C5.32862 2.70364 5.39619 2.83982 5.42942 2.9016C5.50434 3.04088 5.61389 3.17386 5.71589 3.28663C5.71588 3.28661 5.71588 3.28661 5.7159 3.28663C5.71629 3.28709 5.7251 3.29728 5.73919 3.323C5.75381 3.34967 5.77163 3.38849 5.79045 3.44213C5.8287 3.55117 5.86371 3.70018 5.88918 3.8914C5.94024 4.27482 5.94515 4.76724 5.90099 5.32215C5.81248 6.43442 5.53565 7.69315 5.14539 8.65271C4.94912 9.13528 4.74035 9.50166 4.5425 9.73406C4.44527 9.84828 4.36566 9.91229 4.30976 9.94521C4.28303 9.96094 4.26442 9.968 4.2538 9.97113C4.24378 9.97409 4.23892 9.97418 4.2373 9.97418C4.23582 9.97417 4.23061 9.97411 4.2196 9.97073C4.20802 9.96717 4.18634 9.95877 4.1544 9.93894C4.08801 9.89771 3.98592 9.81233 3.85621 9.64559C3.59246 9.30654 3.28111 8.71821 2.94906 7.77676ZM5.97654 3.16804C5.97682 3.16814 5.97711 3.16824 5.97741 3.16835L5.97654 3.16804ZM12.9138 5.03526C12.9138 5.03534 12.9132 5.03713 12.9118 5.04037C12.913 5.0368 12.9137 5.03517 12.9138 5.03526Z"  stroke-width="1.5" stroke-linecap="round" stroke-linejoin="round"/>
</svg>
