<svg width="190" height="181" viewBox="0 0 190 181" fill="none" xmlns="http://www.w3.org/2000/svg">
<path d="M6.86218 158.345C3.0723 153.641 4.02685 147.042 8.99422 143.605L86.1676 90.2115C91.1349 86.7748 98.2341 87.8017 102.024 92.5052C105.814 97.2087 104.859 103.808 99.8919 107.244L22.7186 160.638C17.7512 164.075 10.6521 163.048 6.86218 158.345Z" fill="#BEB2AB"/>
<path d="M120.223 178.303C114.198 179.793 107.573 176.28 105.425 170.457L75.5596 89.4676C73.4123 83.6447 76.5558 77.7169 82.5807 76.2276C88.6056 74.7383 95.2305 78.2514 97.3778 84.0743L127.244 165.063C129.391 170.886 126.247 176.814 120.223 178.303Z" fill="#AFA59F"/>
<path d="M137.386 163.449C132.408 165.84 125.914 164.035 122.883 159.418L73.3606 83.9869C70.3295 79.3701 71.9084 73.6895 76.887 71.2989L78.9082 70.3284C83.8868 67.9378 90.38 69.7425 93.411 74.3593L142.934 149.791C145.965 154.408 144.386 160.088 139.407 162.479L137.386 163.449Z" fill="#B19C91"/>
<path d="M28.3888 164.039C24.999 161.205 24.7098 156.304 27.7429 153.091L93.215 83.7411C96.2481 80.5283 101.455 80.2211 104.845 83.0548L109.946 87.3195C113.336 90.1533 113.625 95.0549 110.592 98.2676L45.1202 167.618C42.0871 170.83 36.8803 171.138 33.4904 168.304L28.3888 164.039Z" fill="#B5A399"/>
<path d="M161.675 145.751C157.629 150.315 150.18 151.356 145.038 148.076L66.3518 97.8831C61.2095 94.6029 60.3205 88.2433 64.3662 83.6786C68.4119 79.1139 75.8604 78.0727 81.0028 81.353L159.689 131.546C164.831 134.826 165.72 141.186 161.675 145.751Z" fill="#C2B5AD"/>
<path fill-rule="evenodd" clip-rule="evenodd" d="M39.2858 157.903C37.2364 156.659 34.9662 155.686 33.0132 155.119C31.6873 154.734 30.7931 154.893 30.2165 155.274C29.6254 155.664 29.2425 156.367 29.1364 157.295C28.9231 159.159 29.8702 161.646 31.8594 163.194C32.1743 163.439 32.5261 163.733 32.9072 164.051C33.5775 164.611 34.3384 165.246 35.1481 165.825C35.7701 166.269 36.3844 166.652 36.9517 166.904C37.5298 167.161 37.9937 167.254 38.3396 167.204C39.2579 167.072 40.2562 166.321 40.7086 165.334C41.1413 164.389 41.0536 163.276 39.876 162.36C39.5247 162.086 39.1231 161.749 38.7009 161.394C38.4947 161.221 38.2835 161.044 38.0709 160.868C37.4124 160.323 36.7241 159.776 36.0548 159.336C35.3764 158.891 34.7629 158.585 34.2537 158.48C33.7781 158.382 33.4531 158.463 33.1935 158.735C33.0821 158.852 33.0387 158.96 33.0299 159.068C33.0205 159.184 33.0492 159.331 33.1401 159.515C33.3269 159.894 33.7266 160.332 34.2732 160.804C34.8114 161.269 35.4507 161.732 36.0723 162.168C36.2183 162.271 36.3642 162.372 36.5076 162.472C36.9642 162.79 37.3962 163.091 37.7281 163.349C37.9461 163.519 37.9682 163.818 37.7775 164.018C37.5868 164.218 37.2556 164.242 37.0377 164.073C36.7289 163.832 36.3296 163.554 35.8797 163.241C35.7321 163.138 35.579 163.032 35.4219 162.921C34.797 162.483 34.1222 161.995 33.5434 161.495C32.9729 161.002 32.4527 160.462 32.1815 159.913C32.0434 159.633 31.9585 159.328 31.9841 159.013C32.0104 158.689 32.1505 158.387 32.4043 158.121C32.9849 157.513 33.7501 157.4 34.5015 157.555C35.2193 157.703 35.9698 158.1 36.6792 158.566C37.3976 159.038 38.121 159.614 38.7849 160.163C39.0122 160.352 39.2309 160.535 39.4405 160.711C39.8528 161.058 40.2297 161.374 40.5665 161.636C42.12 162.845 42.263 164.406 41.6764 165.686C41.1097 166.923 39.839 167.947 38.4894 168.141C37.827 168.237 37.1279 168.046 36.4778 167.757C35.817 167.463 35.1379 167.035 34.4907 166.573C33.6607 165.98 32.8206 165.28 32.1258 164.701C31.7587 164.395 31.4321 164.122 31.1689 163.918C28.9243 162.171 27.8449 159.383 28.0934 157.211C28.2181 156.121 28.6881 155.116 29.607 154.51C30.5405 153.894 31.8135 153.77 33.347 154.215C35.3945 154.81 37.7517 155.821 39.8789 157.113C42.001 158.401 43.932 159.99 45.0847 161.753C45.2312 161.977 45.1474 162.269 44.8976 162.405C44.6478 162.541 44.3265 162.469 44.1801 162.245C43.1351 160.647 41.3403 159.15 39.2858 157.903Z" fill="#8F5D41" fill-opacity="0.3"/>
<path fill-rule="evenodd" clip-rule="evenodd" d="M116.945 167.435C114.727 168.365 112.656 169.609 111.132 170.82C110.091 171.648 109.799 172.423 109.87 173.056C109.943 173.703 110.411 174.362 111.24 174.931C112.906 176.074 115.757 176.654 118.245 175.928C118.634 175.814 119.09 175.697 119.584 175.57C120.456 175.346 121.447 175.092 122.406 174.77C123.143 174.523 123.819 174.249 124.347 173.941C124.886 173.628 125.211 173.316 125.337 173.022C125.671 172.248 125.459 171.095 124.754 170.235C124.081 169.416 122.975 168.887 121.491 169.32C121.029 169.455 120.503 169.589 119.949 169.729C118.88 170 117.707 170.298 116.687 170.684C115.919 170.974 115.316 171.289 114.956 171.63C114.616 171.952 114.54 172.242 114.662 172.568C114.714 172.708 114.791 172.794 114.887 172.856C114.992 172.923 115.147 172.979 115.372 173.006C115.832 173.061 116.455 172.982 117.181 172.807C117.896 172.636 118.66 172.385 119.388 172.134C119.56 172.075 119.73 172.016 119.898 171.957C120.43 171.772 120.932 171.597 121.344 171.476C121.609 171.399 121.902 171.546 121.999 171.805C122.096 172.063 121.96 172.336 121.694 172.413C121.309 172.525 120.842 172.688 120.318 172.871C120.146 172.931 119.967 172.993 119.784 173.056C119.052 173.308 118.249 173.573 117.484 173.757C116.729 173.938 115.958 174.055 115.304 173.976C114.971 173.936 114.639 173.842 114.351 173.656C114.053 173.464 113.831 173.192 113.702 172.849C113.409 172.063 113.696 171.408 114.215 170.916C114.714 170.443 115.464 170.074 116.263 169.771C117.331 169.367 118.624 169.039 119.725 168.758C120.257 168.623 120.745 168.499 121.14 168.384C123.053 167.825 124.61 168.523 125.543 169.66C126.444 170.757 126.781 172.289 126.285 173.439C126.044 174 125.513 174.437 124.914 174.785C124.305 175.14 123.558 175.439 122.794 175.695C121.812 176.024 120.726 176.304 119.826 176.536C119.349 176.659 118.925 176.768 118.595 176.864C115.816 177.676 112.624 177.05 110.678 175.714C109.701 175.044 108.971 174.146 108.854 173.103C108.736 172.047 109.264 170.998 110.452 170.054C112.046 168.786 114.193 167.499 116.49 166.536C118.781 165.575 121.261 164.92 123.513 164.957C123.795 164.961 124.034 165.184 124.045 165.454C124.057 165.724 123.838 165.939 123.557 165.934C121.502 165.901 119.169 166.503 116.945 167.435Z" fill="#6A4632" fill-opacity="0.3"/>
<path fill-rule="evenodd" clip-rule="evenodd" d="M132.667 153C130.718 154.351 128.986 155.978 127.781 157.465C126.96 158.477 126.852 159.293 127.071 159.903C127.295 160.528 127.911 161.08 128.853 161.47C130.747 162.254 133.663 162.249 135.917 161.045C136.272 160.856 136.69 160.65 137.143 160.427C137.942 160.035 138.849 159.589 139.71 159.083C140.372 158.695 140.966 158.293 141.41 157.888C141.862 157.476 142.105 157.108 142.16 156.796C142.307 155.971 141.83 154.88 140.936 154.178C140.083 153.508 138.882 153.218 137.542 153.933C137.145 154.145 136.665 154.379 136.161 154.626C135.915 154.746 135.662 154.869 135.41 154.994C134.631 155.381 133.841 155.793 133.169 156.224C132.488 156.66 131.974 157.087 131.703 157.491C131.449 157.869 131.438 158.17 131.638 158.473C131.724 158.602 131.822 158.673 131.932 158.714C132.05 158.76 132.214 158.783 132.438 158.765C132.897 158.727 133.485 158.526 134.153 158.211C134.81 157.9 135.497 157.503 136.15 157.113C136.304 157.021 136.456 156.929 136.606 156.839C137.083 156.551 137.533 156.279 137.908 156.079C138.151 155.949 138.472 156.03 138.625 156.26C138.778 156.49 138.704 156.782 138.46 156.913C138.111 157.099 137.693 157.351 137.224 157.634C137.069 157.727 136.91 157.824 136.745 157.922C136.089 158.315 135.366 158.734 134.66 159.067C133.965 159.395 133.237 159.664 132.577 159.718C132.241 159.746 131.894 159.72 131.57 159.596C131.236 159.469 130.959 159.25 130.756 158.944C130.292 158.244 130.416 157.55 130.811 156.962C131.189 156.398 131.838 155.886 132.549 155.43C133.268 154.969 134.099 154.537 134.884 154.147C135.153 154.014 135.414 153.886 135.664 153.764C136.157 153.523 136.608 153.303 136.989 153.1C138.736 152.167 140.421 152.543 141.591 153.462C142.72 154.35 143.404 155.772 143.188 156.991C143.082 157.588 142.665 158.122 142.16 158.583C141.645 159.052 140.985 159.494 140.298 159.897C139.415 160.415 138.419 160.906 137.593 161.313C137.156 161.528 136.768 161.719 136.469 161.879C133.938 163.23 130.672 163.254 128.462 162.34C127.354 161.881 126.438 161.153 126.084 160.165C125.724 159.163 125.993 158.034 126.936 156.871C128.199 155.313 129.997 153.626 132.017 152.226C134.032 150.829 136.303 149.693 138.515 149.277C138.793 149.225 139.076 149.393 139.146 149.652C139.215 149.911 139.046 150.163 138.767 150.216C136.756 150.593 134.62 151.646 132.667 153Z" fill="#89592D" fill-opacity="0.3"/>
<path fill-rule="evenodd" clip-rule="evenodd" d="M150.853 137.635C149.259 139.31 147.941 141.214 147.106 142.885C146.541 144.016 146.62 144.833 146.984 145.397C147.357 145.976 148.102 146.404 149.119 146.61C151.164 147.025 154.016 146.48 155.937 144.898C156.243 144.646 156.606 144.368 156.999 144.067C157.69 143.537 158.473 142.937 159.2 142.285C159.758 141.785 160.246 141.285 160.585 140.811C160.93 140.329 161.081 139.928 161.062 139.614C161.013 138.777 160.283 137.792 159.232 137.268C158.225 136.765 156.985 136.714 155.852 137.647C155.512 137.927 155.095 138.245 154.658 138.578C154.444 138.741 154.225 138.908 154.008 139.076C153.334 139.597 152.656 140.144 152.099 140.686C151.534 141.236 151.132 141.745 150.962 142.184C150.804 142.592 150.857 142.895 151.137 143.165C151.257 143.281 151.376 143.334 151.496 143.355C151.624 143.377 151.789 143.369 152.001 143.311C152.438 143.191 152.964 142.889 153.545 142.459C154.116 142.036 154.697 141.523 155.246 141.022C155.375 140.904 155.503 140.786 155.628 140.671C156.029 140.302 156.408 139.953 156.73 139.688C156.943 139.513 157.277 139.526 157.476 139.717C157.675 139.909 157.663 140.207 157.45 140.382C157.152 140.628 156.802 140.95 156.407 141.313C156.278 141.432 156.143 141.556 156.004 141.682C155.452 142.186 154.839 142.729 154.223 143.185C153.616 143.635 152.961 144.034 152.321 144.21C151.995 144.3 151.647 144.339 151.301 144.278C150.947 144.216 150.63 144.056 150.365 143.801C149.759 143.216 149.711 142.524 149.964 141.87C150.205 141.246 150.725 140.624 151.318 140.047C151.917 139.463 152.633 138.888 153.312 138.362C153.545 138.182 153.772 138.01 153.989 137.844C154.416 137.519 154.807 137.221 155.132 136.953C156.644 135.708 158.391 135.774 159.741 136.448C161.047 137.099 162.044 138.35 162.117 139.573C162.152 140.175 161.867 140.776 161.476 141.322C161.079 141.876 160.533 142.431 159.952 142.952C159.206 143.62 158.34 144.286 157.625 144.835C157.247 145.125 156.911 145.383 156.657 145.592C154.479 147.385 151.272 148.01 148.894 147.528C147.699 147.285 146.641 146.747 146.07 145.86C145.489 144.959 145.484 143.811 146.141 142.495C147.017 140.742 148.389 138.763 150.046 137.022C151.698 135.285 153.665 133.755 155.744 132.939C156.01 132.835 156.323 132.943 156.442 133.181C156.561 133.419 156.443 133.697 156.177 133.801C154.297 134.538 152.451 135.955 150.853 137.635Z" fill="#795A49" fill-opacity="0.3"/>
<path fill-rule="evenodd" clip-rule="evenodd" d="M51.9644 132.859L52.7755 133.444L39.8445 148.859L39.0334 148.274L51.9644 132.859Z" fill="#624332" fill-opacity="0.3"/>
<path fill-rule="evenodd" clip-rule="evenodd" d="M62.042 134.127L62.8711 134.686L57.4552 141.59L56.6261 141.031L62.042 134.127Z" fill="#624332" fill-opacity="0.3"/>
<path fill-rule="evenodd" clip-rule="evenodd" d="M65.4985 139.771L66.3216 140.339L52.7135 157.284L51.8905 156.716L65.4985 139.771Z" fill="#624332" fill-opacity="0.3"/>
<path fill-rule="evenodd" clip-rule="evenodd" d="M96.5093 137.705L97.4567 137.384L105.26 157.232L104.312 157.552L96.5093 137.705Z" fill="#774E37" fill-opacity="0.3"/>
<path fill-rule="evenodd" clip-rule="evenodd" d="M118.21 135.277L119.084 134.791L127.208 147.343L126.334 147.829L118.21 135.277Z" fill="#8E6045" fill-opacity="0.3"/>
<path fill-rule="evenodd" clip-rule="evenodd" d="M131.077 142.816L131.942 142.315L135.327 147.336L134.462 147.837L131.077 142.816Z" fill="#8E6045" fill-opacity="0.3"/>
<path fill-rule="evenodd" clip-rule="evenodd" d="M115.162 143.981L111.777 138.728L112.654 138.244L116.036 143.493L117.725 145.999L116.86 146.5L115.162 143.981ZM123.581 152.726L121.888 150.216L122.754 149.714L124.446 152.225L123.581 152.726Z" fill="#8E6045" fill-opacity="0.3"/>
<path fill-rule="evenodd" clip-rule="evenodd" d="M112.794 130.257L113.668 129.771L121.792 142.322L120.918 142.808L112.794 130.257Z" fill="#8E6045" fill-opacity="0.3"/>
<path fill-rule="evenodd" clip-rule="evenodd" d="M110.068 143.401L110.978 142.985L121.046 161.936L120.137 162.352L110.068 143.401Z" fill="#774E37" fill-opacity="0.3"/>
<path fill-rule="evenodd" clip-rule="evenodd" d="M125.803 115.358L126.385 114.545L145.37 126.229L144.788 127.042L125.803 115.358Z" fill="#947360" fill-opacity="0.3"/>
<path fill-rule="evenodd" clip-rule="evenodd" d="M131.235 121.018L131.784 120.182L147.354 128.968L146.806 129.804L131.235 121.018Z" fill="#947360" fill-opacity="0.3"/>
<path fill-rule="evenodd" clip-rule="evenodd" d="M133.261 132.939L133.82 132.109L144.652 138.385L144.093 139.214L133.261 132.939Z" fill="#947360" fill-opacity="0.3"/>
<path fill-rule="evenodd" clip-rule="evenodd" d="M119.044 127.918L119.603 127.089L130.435 133.365L129.876 134.194L119.044 127.918Z" fill="#947360" fill-opacity="0.3"/>
<path fill-rule="evenodd" clip-rule="evenodd" d="M119.721 119.131L120.28 118.302L131.112 124.578L130.553 125.407L119.721 119.131Z" fill="#947360" fill-opacity="0.3"/>
<path fill-rule="evenodd" clip-rule="evenodd" d="M106.511 154.447L107.458 154.126L111.826 165.2L110.879 165.521L106.511 154.447Z" fill="#774E37" fill-opacity="0.3"/>
<path fill-rule="evenodd" clip-rule="evenodd" d="M108.013 151.496L108.971 151.208L111.308 157.889L110.35 158.177L108.013 151.496Z" fill="#774E37" fill-opacity="0.3"/>
<path fill-rule="evenodd" clip-rule="evenodd" d="M48.5796 134.114L49.3908 134.699L36.4598 150.114L35.6486 149.529L48.5796 134.114Z" fill="#624332" fill-opacity="0.3"/>
<path fill-rule="evenodd" clip-rule="evenodd" d="M17.0217 152.056C15.2547 150.545 13.2107 149.266 11.3949 148.428C10.1716 147.863 9.24608 147.881 8.57574 148.175C7.88705 148.476 7.35123 149.12 7.04741 150.011C6.4363 151.803 6.85161 154.357 8.4841 156.144C8.7295 156.412 9.01589 156.75 9.3244 157.113C9.44878 157.259 9.57677 157.41 9.70711 157.562C10.1672 158.099 10.6686 158.669 11.1884 159.19C11.7104 159.714 12.2363 160.174 12.7421 160.501C13.2558 160.832 13.6917 160.99 14.0454 160.992C14.9956 160.997 16.1633 160.404 16.832 159.495C17.4755 158.621 17.6082 157.53 16.6535 156.485C16.3621 156.166 16.034 155.777 15.6899 155.369C15.5221 155.17 15.3505 154.966 15.1774 154.764C14.6398 154.136 14.0742 153.504 13.5052 152.979C12.9284 152.447 12.3894 152.064 11.9129 151.889C11.4733 151.728 11.1216 151.75 10.785 151.992C10.6402 152.096 10.5696 152.203 10.5367 152.311C10.502 152.425 10.5001 152.571 10.5499 152.76C10.653 153.149 10.9524 153.63 11.3932 154.168C11.8269 154.699 12.3615 155.243 12.8858 155.759C13.0085 155.88 13.1315 156 13.2525 156.118C13.6385 156.496 14.0049 156.854 14.2806 157.155C14.4669 157.359 14.4361 157.655 14.212 157.816C13.9878 157.978 13.6551 157.943 13.4688 157.739C13.2143 157.461 12.8784 157.132 12.4986 156.761C12.3737 156.639 12.2441 156.513 12.111 156.382C11.5837 155.862 11.0158 155.286 10.5458 154.711C10.0828 154.145 9.6769 153.537 9.52288 152.954C9.44418 152.657 9.42571 152.346 9.51775 152.044C9.61154 151.736 9.81088 151.47 10.1105 151.254C10.7962 150.761 11.5689 150.754 12.2941 151.02C12.9823 151.272 13.6485 151.773 14.2557 152.334C14.8709 152.901 15.4681 153.571 16.0107 154.204C16.1969 154.422 16.3753 154.634 16.5461 154.836C16.8814 155.234 17.1872 155.596 17.4653 155.901C18.7703 157.329 18.5618 158.879 17.7186 160.025C16.9006 161.136 15.4361 161.941 14.0638 161.933C13.385 161.929 12.7261 161.639 12.1364 161.258C11.5387 160.872 10.9525 160.353 10.4071 159.806C9.85953 159.257 9.33832 158.664 8.87408 158.122C8.73486 157.96 8.60173 157.803 8.47474 157.653C8.17234 157.297 7.90469 156.982 7.67228 156.728C5.80173 154.681 5.32884 151.794 6.03693 149.717C6.39272 148.674 7.06837 147.776 8.09207 147.328C9.13412 146.871 10.4219 146.93 11.862 147.594C13.7722 148.476 15.9014 149.81 17.7425 151.384C19.579 152.954 21.1641 154.793 21.9364 156.689C22.0366 156.935 21.896 157.203 21.6223 157.286C21.3486 157.37 21.0454 157.238 20.9452 156.992C20.2514 155.287 18.7934 153.571 17.0217 152.056Z" fill="#7E563F" fill-opacity="0.3"/>
<path fill-rule="evenodd" clip-rule="evenodd" d="M32.5854 129.006L33.2364 129.765L16.7469 141.917L16.0959 141.157L32.5854 129.006Z" fill="#8F654E" fill-opacity="0.3"/>
<path fill-rule="evenodd" clip-rule="evenodd" d="M44.771 125.869L45.4219 126.628L28.9324 138.779L28.2815 138.02L44.771 125.869Z" fill="#8F654E" fill-opacity="0.3"/>
<path fill-rule="evenodd" clip-rule="evenodd" d="M28.9492 144.704L29.619 145.447L22.8492 150.695L22.1794 149.952L28.9492 144.704Z" fill="#8F654E" fill-opacity="0.3"/>
<g filter="url(#filter0_d_1187_2153)">
<path d="M52.7593 26.0586C66.6869 37.4278 52.9273 130.022 22.8611 69.2053C29.2035 110.799 35.9907 125.911 54.5434 136.457C89.9092 148.217 104.697 142.499 127.171 119.494C142.014 96.268 139.051 78.7358 108.6 37.4194C100.271 26.8456 109.033 64.5171 100.305 72.3422C101.57 43.2106 38.8317 14.6894 52.7593 26.0586Z" fill="#CAB0B0"/>
</g>
<path d="M72.9271 63.069C71.2411 58.7012 63.4522 122.209 46.7926 95.6288C46.3285 121.876 52.0878 123.348 62.4169 131.449C82.7547 137.574 88.5586 138.087 108.977 127.167C122.268 114.115 128.18 107.171 113.752 79.0369C109.729 71.791 106.374 82.5278 100.591 91.5315C104.434 73.6357 74.613 67.4368 72.9271 63.069Z" fill="#DDD8D3"/>
<path d="M115.459 112.739C115.774 114.251 113.143 116.058 109.584 116.776C106.024 117.493 102.884 116.848 102.57 115.336C102.255 113.824 104.885 112.016 108.445 111.299C112.004 110.582 115.144 111.226 115.459 112.739Z" fill="#E1C4BB"/>
<path d="M69.2097 119.796C69.2445 121.341 66.3296 122.641 62.6992 122.7C59.0688 122.759 56.0976 121.555 56.0629 120.01C56.0282 118.466 58.943 117.166 62.5734 117.107C66.2038 117.048 69.175 118.252 69.2097 119.796Z" fill="#E1C4BB"/>
<path fill-rule="evenodd" clip-rule="evenodd" d="M110.475 101.42C110.796 101.682 110.843 102.154 110.581 102.475C108.182 105.407 104.372 107.089 100.848 107.858C99.0752 108.244 97.3441 108.407 95.851 108.375C94.3795 108.343 93.0613 108.119 92.1648 107.671C91.7943 107.486 91.6441 107.035 91.8293 106.665C92.0146 106.294 92.4651 106.144 92.8356 106.329C93.439 106.631 94.4958 106.845 95.8837 106.875C97.25 106.905 98.8626 106.756 100.528 106.392C103.878 105.661 107.318 104.093 109.42 101.525C109.682 101.205 110.155 101.157 110.475 101.42ZM78.171 109.165C78.3562 109.535 78.2061 109.986 77.8356 110.171C74.1985 111.989 69.9481 112.625 66.2502 112.625C62.5753 112.625 59.3155 111.996 57.6648 111.171C57.2943 110.986 57.1441 110.535 57.3293 110.165C57.5146 109.794 57.9651 109.644 58.3356 109.829C59.6849 110.504 62.675 111.125 66.2502 111.125C69.8022 111.125 73.8019 110.511 77.1648 108.829C77.5352 108.644 77.9857 108.794 78.171 109.165Z" fill="#757575"/>
<path d="M95.1936 123.917C95.3671 125.878 92.8704 128.403 89.5822 128.772C86.2941 129.142 83.4878 127.853 83.3142 125.893C83.1407 123.932 85.6656 122.043 88.9537 121.673C92.2419 121.303 95.02 121.957 95.1936 123.917Z" fill="#C2A0A0"/>
<path fill-rule="evenodd" clip-rule="evenodd" d="M93.3559 126.573C94.3077 125.707 94.7639 124.732 94.6967 123.973C94.6349 123.275 94.118 122.732 93.0797 122.399C92.0436 122.066 90.6045 121.99 88.9978 122.171C87.4276 122.348 86.0638 122.885 85.1277 123.586C84.1817 124.294 83.7461 125.102 83.8111 125.837C83.8761 126.571 84.4449 127.267 85.4964 127.75C86.5367 128.228 87.9679 128.451 89.5382 128.274C91.0731 128.102 92.4198 127.425 93.3559 126.573ZM89.5822 128.772C92.8704 128.403 95.3671 125.878 95.1936 123.917C95.02 121.957 92.2419 121.303 88.9537 121.673C85.6656 122.043 83.1407 123.932 83.3142 125.893C83.4878 127.853 86.2941 129.142 89.5822 128.772Z" fill="#757575"/>
<path d="M140.467 42C135.968 41.9999 131.518 44.2722 129.645 45.6423C129.301 46.8501 128.384 47.5931 129.645 48C132.607 48.9553 137.193 44.4572 138.646 44.7997C138.722 45.1422 131.238 55.098 130.846 56.1024C130.502 56.9831 132.209 57.5596 133.47 58H134.961C137.598 56.6789 140.907 56.0581 142.416 54.7707C144.136 53.3028 144.315 51.5275 143.972 50.5C143.629 49.4725 133.498 56.8724 136.128 54.2707C138.652 51.7753 140.602 48.0184 143.354 43.9083C143.354 42.5538 141.614 42 140.467 42Z" fill="#E5E0E0" stroke="#757575" stroke-opacity="0.5"/>
<path d="M158.679 24.1416C152.919 24.316 147.312 27.3975 144.967 29.2239C144.574 30.7833 143.428 31.77 145.059 32.2419C148.886 33.3498 154.583 27.4139 156.456 27.796C156.567 28.2314 147.374 41.2658 146.91 42.5667C146.504 43.7074 148.711 44.3791 150.343 44.8938L152.252 44.836C155.575 43.0426 159.787 42.1194 161.669 40.4129C163.814 38.4672 163.974 36.1879 163.495 34.8859C163.016 33.5839 150.334 43.4494 153.601 40.017C156.734 36.7248 159.085 31.8402 162.447 26.4723C162.395 24.7385 160.147 24.0971 158.679 24.1416Z" fill="#E5E0E0" stroke="#757575" stroke-opacity="0.5"/>
<path d="M182.318 1.17673C175.13 1.39445 168.133 5.23996 165.207 7.51923C164.716 9.46533 163.286 10.6967 165.321 11.2856C170.098 12.6682 177.207 5.2605 179.544 5.73727C179.683 6.2807 168.21 22.5471 167.632 24.1705C167.125 25.5941 169.879 26.4324 171.916 27.0747L174.298 27.0025C178.446 24.7644 183.702 23.6124 186.05 21.4827C188.727 19.0545 188.927 16.21 188.329 14.5852C187.731 12.9604 171.905 25.2721 175.982 20.9886C179.892 16.8801 182.825 10.7842 187.022 4.08534C186.956 1.92164 184.15 1.12123 182.318 1.17673Z" fill="#E5E0E0" stroke="#757575" stroke-opacity="0.5"/>
<path d="M102.757 130.752C102.964 127.462 99.5019 123.675 95.3478 124.819C98.4269 125.8 97.4723 128.33 98.8505 130.381C101.399 134.173 102.55 134.041 102.757 130.752Z" fill="#E8F3F3"/>
<path d="M95.2719 125.058C95.1665 125.024 95.0957 124.925 95.0978 124.815C95.1 124.704 95.1747 124.608 95.2814 124.578C97.4526 123.98 99.4423 124.674 100.855 125.936C102.261 127.194 103.116 129.034 103.007 130.767C102.955 131.597 102.842 132.257 102.648 132.712C102.55 132.942 102.426 133.136 102.262 133.272C102.093 133.412 101.892 133.482 101.67 133.471C101.253 133.452 100.805 133.152 100.33 132.678C99.8442 132.192 99.2839 131.474 98.643 130.52C98.2775 129.976 98.07 129.405 97.9141 128.853C97.8477 128.617 97.7898 128.381 97.7338 128.153C97.7244 128.114 97.715 128.076 97.7057 128.039C97.6403 127.773 97.5756 127.519 97.4985 127.274C97.3448 126.786 97.1461 126.351 96.8141 125.981C96.4837 125.612 96.0068 125.292 95.2719 125.058Z" stroke="#757575" stroke-opacity="0.5" stroke-width="0.5" stroke-linejoin="round"/>
<defs>
<filter id="filter0_d_1187_2153" x="18.8608" y="23.5007" width="120.986" height="126.898" filterUnits="userSpaceOnUse" color-interpolation-filters="sRGB">
<feFlood flood-opacity="0" result="BackgroundImageFix"/>
<feColorMatrix in="SourceAlpha" type="matrix" values="0 0 0 0 0 0 0 0 0 0 0 0 0 0 0 0 0 0 127 0" result="hardAlpha"/>
<feOffset dy="4"/>
<feGaussianBlur stdDeviation="2"/>
<feComposite in2="hardAlpha" operator="out"/>
<feColorMatrix type="matrix" values="0 0 0 0 0 0 0 0 0 0 0 0 0 0 0 0 0 0 0.25 0"/>
<feBlend mode="normal" in2="BackgroundImageFix" result="effect1_dropShadow_1187_2153"/>
<feBlend mode="normal" in="SourceGraphic" in2="effect1_dropShadow_1187_2153" result="shape"/>
</filter>
</defs>
</svg>
