<svg width="57" height="57" viewBox="0 0 57 57" fill="none" xmlns="http://www.w3.org/2000/svg">
<path d="M57 28.5C57 44.2401 44.2401 57 28.5 57C12.7599 57 0 44.2401 0 28.5C0 12.7599 12.7599 0 28.5 0C44.2401 0 57 12.7599 57 28.5Z" fill="#FCFBF3"/>
<g filter="url(#filter0_d_2067_4363)">
<rect width="22.9601" height="4.35445" rx="2.17722" transform="matrix(0.828708 -0.565813 0.63019 0.771818 12.2358 39.3628)" fill="#9B6F57"/>
<rect width="22.9601" height="4.35445" rx="2.17722" transform="matrix(0.828708 -0.565813 0.63019 0.771818 12.2358 39.3628)" stroke="#9F2929" style="mix-blend-mode:lighten"/>
<path d="M36.2735 44.9806C35.0689 45.2745 33.742 44.5753 33.3099 43.419L27.3483 27.4654C26.9162 26.309 27.5425 25.1334 28.7472 24.8396C29.9518 24.5457 31.2787 25.2449 31.7108 26.4012L37.6723 42.3548C38.1044 43.5111 37.4782 44.6867 36.2735 44.9806Z" fill="#885A3F"/>
<path d="M36.2735 44.9806C35.0689 45.2745 33.742 44.5753 33.3099 43.419L27.3483 27.4654C26.9162 26.309 27.5425 25.1334 28.7472 24.8396C29.9518 24.5457 31.2787 25.2449 31.7108 26.4012L37.6723 42.3548C38.1044 43.5111 37.4782 44.6867 36.2735 44.9806Z" stroke="#9F2929" style="mix-blend-mode:lighten"/>
<rect width="21.9141" height="4.42325" rx="2.21162" transform="matrix(-0.551999 -0.829722 0.906347 -0.429476 37.9028 42.9043)" fill="#6B452F"/>
<rect width="21.9141" height="4.42325" rx="2.21162" transform="matrix(-0.551999 -0.829722 0.906347 -0.429476 37.9028 42.9043)" stroke="#9F2929" style="mix-blend-mode:lighten"/>
<rect width="22.0355" height="4.51995" rx="2.25998" transform="matrix(0.693747 -0.725167 0.768708 0.634146 16.6848 41.1543)" fill="#785542"/>
<rect width="22.0355" height="4.51995" rx="2.25998" transform="matrix(0.693747 -0.725167 0.768708 0.634146 16.6848 41.1543)" stroke="#9F2929" style="mix-blend-mode:lighten"/>
<rect width="23.0624" height="4.36858" rx="2.18429" transform="matrix(-0.84364 -0.531067 0.670558 -0.746614 43.0974 40.189)" fill="#876755"/>
<rect width="23.0624" height="4.36858" rx="2.18429" transform="matrix(-0.84364 -0.531067 0.670558 -0.746614 43.0974 40.189)" stroke="#9F2929" style="mix-blend-mode:lighten"/>
<path d="M15.0106 40.8658C14.7305 40.5634 13.97 39.9689 14.3254 39.7166C14.7342 39.4264 15.3062 40.2498 15.6474 40.6183C16.0992 41.1062 15.5109 41.6607 15.0466 41.658C14.6336 41.6556 14.1213 40.9575 13.8516 40.6662C13.1512 39.9098 13.4964 38.5189 14.5615 39.0039C15.3065 39.3431 16.2303 40.0355 16.5234 40.7461" stroke="#9F2929" stroke-linecap="round" style="mix-blend-mode:lighten"/>
<path d="M19.7105 42.1021C19.372 41.8422 18.5018 41.3617 18.7939 41.0597C19.1299 40.7124 19.8657 41.4475 20.278 41.7641C20.8241 42.1835 20.3702 42.8194 19.9167 42.8839C19.5135 42.9412 18.863 42.3218 18.537 42.0715C17.6905 41.4215 17.7266 39.9899 18.8701 40.3176C19.67 40.5468 20.7205 41.101 21.16 41.7644" stroke="#9F2929" stroke-linecap="round" style="mix-blend-mode:lighten"/>
<path d="M36.533 43.7262C36.1119 43.8476 35.2106 44.2583 35.066 43.8769C34.8998 43.4382 35.9793 43.2638 36.4923 43.116C37.1716 42.9202 37.557 43.6004 37.3912 43.9799C37.2438 44.3174 36.3188 44.4877 35.9133 44.6046C34.8602 44.9081 33.4968 44.1281 34.3881 43.4287C35.0117 42.9395 36.0748 42.4301 36.9361 42.4438" stroke="#9F2929" stroke-linecap="round" style="mix-blend-mode:lighten"/>
<path d="M39.8651 40.6778C39.4825 40.8794 38.6991 41.4582 38.4681 41.1143C38.2024 40.7187 39.2154 40.3355 39.6814 40.09C40.2987 39.7648 40.8354 40.3529 40.7629 40.7562C40.6984 41.1149 39.8354 41.4636 39.467 41.6577C38.5102 42.1619 36.995 41.6691 37.7005 40.8104C38.1941 40.2097 39.1121 39.5025 39.9564 39.3461" stroke="#9F2929" stroke-linecap="round" style="mix-blend-mode:lighten"/>
<path d="M43.6455 37.43C43.3178 37.6963 42.6861 38.4035 42.378 38.1103C42.0235 37.773 42.9268 37.2147 43.326 36.8903C43.8547 36.4608 44.5207 36.9364 44.5451 37.3429C44.5668 37.7043 43.8025 38.2016 43.4869 38.458C42.6674 39.124 41.0637 38.9197 41.5527 37.9539C41.8948 37.2782 42.6282 36.4213 43.4196 36.1149" stroke="#9F2929" stroke-linecap="round" style="mix-blend-mode:lighten"/>
<path d="M22.7073 36.0723L21.4145 37.5931L20.1218 39.1139" stroke="#624332"/>
<path d="M24.7241 36.3198L24.1827 37.0009L23.6412 37.682" stroke="#624332"/>
<path d="M25.4141 37.4341L24.0536 39.1058L22.6932 40.7775" stroke="#624332"/>
<path d="M31.6267 36.939L32.4068 38.8971L33.1869 40.8552" stroke="#774E37"/>
<path d="M35.9585 36.4434L36.7707 37.6817L37.5828 38.92" stroke="#8E6045"/>
<path d="M38.53 37.9297L38.8684 38.425L39.2068 38.9203" stroke="#8E6045"/>
<path d="M34.6722 37.1248L35.349 38.1613C35.4812 38.3548 35.5553 38.4632 35.6874 38.6567M37.0312 39.8851L36.6928 39.3898" stroke="#8E6045"/>
<path d="M34.8757 35.4526L35.6879 36.691L36.5001 37.9293" stroke="#8E6045"/>
<path d="M34.334 38.0537L35.3406 39.9234L36.3471 41.793" stroke="#774E37"/>
<path d="M37.4475 32.481L39.3455 33.6336L41.2436 34.7863" stroke="#947360"/>
<path d="M38.53 33.5952L40.0867 34.462L41.6433 35.3289" stroke="#947360"/>
<path d="M38.9365 35.9482L40.0194 36.5674L41.1023 37.1866" stroke="#947360"/>
<path d="M36.0945 34.9575L37.1774 35.5767L38.2603 36.1958" stroke="#947360"/>
<path d="M36.229 33.2241L37.3119 33.8433L38.3948 34.4624" stroke="#947360"/>
<path d="M33.6265 40.2427L34.0632 41.3352L34.4999 42.4278" stroke="#774E37"/>
<path d="M33.9285 39.6631L34.1621 40.3222L34.3958 40.9814" stroke="#774E37"/>
<path d="M22.03 36.3198L20.7373 37.8406L19.4445 39.3614" stroke="#624332"/>
<path d="M18.8157 35.3291L17.1672 36.5279L15.5187 37.7267" stroke="#8F654E"/>
<path d="M21.2524 34.71L19.6039 35.9088L17.9554 37.1076" stroke="#8F654E"/>
<path d="M18.0908 38.4248L17.414 38.9425L16.7372 39.4603" stroke="#8F654E"/>
</g>
<g filter="url(#filter1_d_2067_4363)">
<path d="M21.383 13.3533C24.368 15.6026 22.2914 34.9938 15.5427 22.5872C17.2081 31.1923 18.7431 34.281 22.6808 36.3197C30.1167 38.4696 33.1367 37.1547 37.6058 32.1763C40.49 27.2162 39.728 23.5915 33.0634 15.2474C31.2464 13.1165 33.3808 20.8847 31.6358 22.5872C31.6534 16.5122 18.3979 11.104 21.383 13.3533Z" fill="#E73C3C"/>
</g>
<path d="M25.8787 20.8877C25.4922 19.9926 24.41 33.2786 20.7304 27.886C20.8546 33.3538 22.0618 33.6116 24.2728 35.2109C28.5437 36.3146 29.7521 36.3724 33.8963 33.927C36.5441 31.0978 37.7123 29.6025 34.4826 23.8675C33.587 22.393 32.9813 24.6564 31.8571 26.5794C32.5041 22.8217 26.2652 21.7827 25.8787 20.8877Z" fill="#FDA554"/>
<g filter="url(#filter2_f_2067_4363)">
<path d="M38.4618 15.8635C40.9255 12.9514 38.2127 10.9577 38.2489 12.4206C38.2835 13.8184 36.709 15.1324 38.4618 15.8635Z" fill="url(#paint0_radial_2067_4363)"/>
</g>
<g filter="url(#filter3_f_2067_4363)">
<path d="M19.2785 21.2072C16.7324 20.0335 17.4441 17.9463 18.0256 19.0004C18.6112 20.062 20.3189 20.1028 19.2785 21.2072Z" fill="url(#paint1_linear_2067_4363)"/>
</g>
<ellipse cx="26.2259" cy="30.8333" rx="0.876328" ry="0.834732" fill="black"/>
<g filter="url(#filter4_d_2067_4363)">
<ellipse cx="26.5482" cy="30.8049" rx="0.306221" ry="0.301466" fill="white"/>
</g>
<path d="M31.9541 30.5828C31.9541 31.0438 31.5617 31.4175 31.0777 31.4175C30.5938 31.4175 30.2014 31.0438 30.2014 30.5828C30.2014 30.1218 30.5938 29.748 31.0777 29.748C31.5617 29.748 31.9541 30.1218 31.9541 30.5828Z" fill="black"/>
<ellipse cx="1.36506" cy="0.58273" rx="1.36506" ry="0.58273" transform="matrix(0.998379 -0.056921 0.0627135 0.998032 32.0544 31.8784)" fill="#FF6A3C"/>
<ellipse cx="1.36506" cy="0.58273" rx="1.36506" ry="0.58273" transform="matrix(0.998379 -0.056921 0.0627135 0.998032 22.9695 32.3965)" fill="#FF6A3C"/>
<ellipse cx="30.7076" cy="30.6442" rx="0.306221" ry="0.301466" fill="white"/>
<defs>
<filter id="filter0_d_2067_4363" x="8.62476" y="23.0728" width="40.9875" height="30.457" filterUnits="userSpaceOnUse" color-interpolation-filters="sRGB">
<feFlood flood-opacity="0" result="BackgroundImageFix"/>
<feColorMatrix in="SourceAlpha" type="matrix" values="0 0 0 0 0 0 0 0 0 0 0 0 0 0 0 0 0 0 127 0" result="hardAlpha"/>
<feOffset dy="4"/>
<feGaussianBlur stdDeviation="2"/>
<feComposite in2="hardAlpha" operator="out"/>
<feColorMatrix type="matrix" values="0 0 0 0 0 0 0 0 0 0 0 0 0 0 0 0 0 0 0.25 0"/>
<feBlend mode="normal" in2="BackgroundImageFix" result="effect1_dropShadow_2067_4363"/>
<feBlend mode="normal" in="SourceGraphic" in2="effect1_dropShadow_2067_4363" result="shape"/>
</filter>
<filter id="filter1_d_2067_4363" x="11.5427" y="12.833" width="31.6553" height="32.4814" filterUnits="userSpaceOnUse" color-interpolation-filters="sRGB">
<feFlood flood-opacity="0" result="BackgroundImageFix"/>
<feColorMatrix in="SourceAlpha" type="matrix" values="0 0 0 0 0 0 0 0 0 0 0 0 0 0 0 0 0 0 127 0" result="hardAlpha"/>
<feOffset dy="4"/>
<feGaussianBlur stdDeviation="2"/>
<feComposite in2="hardAlpha" operator="out"/>
<feColorMatrix type="matrix" values="0 0 0 0 0 0 0 0 0 0 0 0 0 0 0 0 0 0 0.25 0"/>
<feBlend mode="normal" in2="BackgroundImageFix" result="effect1_dropShadow_2067_4363"/>
<feBlend mode="normal" in="SourceGraphic" in2="effect1_dropShadow_2067_4363" result="shape"/>
</filter>
<filter id="filter2_f_2067_4363" x="36.6321" y="10.9287" width="3.86475" height="5.93457" filterUnits="userSpaceOnUse" color-interpolation-filters="sRGB">
<feFlood flood-opacity="0" result="BackgroundImageFix"/>
<feBlend mode="normal" in="SourceGraphic" in2="BackgroundImageFix" result="shape"/>
<feGaussianBlur stdDeviation="0.5" result="effect1_foregroundBlur_2067_4363"/>
</filter>
<filter id="filter3_f_2067_4363" x="16.4702" y="17.7119" width="4.13721" height="4.49512" filterUnits="userSpaceOnUse" color-interpolation-filters="sRGB">
<feFlood flood-opacity="0" result="BackgroundImageFix"/>
<feBlend mode="normal" in="SourceGraphic" in2="BackgroundImageFix" result="shape"/>
<feGaussianBlur stdDeviation="0.5" result="effect1_foregroundBlur_2067_4363"/>
</filter>
<filter id="filter4_d_2067_4363" x="22.2419" y="30.5034" width="8.61255" height="8.60303" filterUnits="userSpaceOnUse" color-interpolation-filters="sRGB">
<feFlood flood-opacity="0" result="BackgroundImageFix"/>
<feColorMatrix in="SourceAlpha" type="matrix" values="0 0 0 0 0 0 0 0 0 0 0 0 0 0 0 0 0 0 127 0" result="hardAlpha"/>
<feOffset dy="4"/>
<feGaussianBlur stdDeviation="2"/>
<feComposite in2="hardAlpha" operator="out"/>
<feColorMatrix type="matrix" values="0 0 0 0 0 0 0 0 0 0 0 0 0 0 0 0 0 0 0.25 0"/>
<feBlend mode="normal" in2="BackgroundImageFix" result="effect1_dropShadow_2067_4363"/>
<feBlend mode="normal" in="SourceGraphic" in2="effect1_dropShadow_2067_4363" result="shape"/>
</filter>
<radialGradient id="paint0_radial_2067_4363" cx="0" cy="0" r="1" gradientUnits="userSpaceOnUse" gradientTransform="translate(38.685 14.3421) rotate(-94.1721) scale(2.41854 1.12797)">
<stop offset="0.395833" stop-color="#FF0000"/>
<stop offset="0.953125" stop-opacity="0.0572917"/>
<stop offset="0.973958" stop-color="#F91F1F" stop-opacity="0"/>
</radialGradient>
<linearGradient id="paint1_linear_2067_4363" x1="19.2979" y1="21.2723" x2="17.9795" y2="18.4005" gradientUnits="userSpaceOnUse">
<stop offset="0.311817" stop-color="#FF0000"/>
<stop offset="0.962798" stop-color="#6C6C6B" stop-opacity="0"/>
</linearGradient>
</defs>
</svg>
