<svg width="322" height="204" viewBox="0 0 322 204" fill="none" xmlns="http://www.w3.org/2000/svg">
<rect x="0.25" y="0.25" width="321.5" height="203.5" rx="9.75" fill="#D9DFD6" fill-opacity="0.5" stroke="#DBDBDB" stroke-width="0.5"/>
<path d="M134.634 156.482L133.371 116.058L95.4385 86.9703L96.6836 126.816L134.634 156.482Z" fill="#CBB6A3"/>
<path d="M174.729 110.671L173.924 84.8943L94.4749 88.157L127.26 112.621L174.729 110.671Z" fill="#C5B7A3"/>
<path d="M173.424 84.9149L174.176 108.973L184.366 114.864L218.844 113.448L173.424 84.9149Z" fill="#C1B7AB"/>
<path d="M133.824 116.366L127.206 110.902L175.749 108.909L184.349 114.291L133.824 116.366Z" fill="#D4C8BD"/>
<path d="M133.381 116.384L134.634 156.482L220.579 152.952L219.326 112.855L133.381 116.384Z" fill="#DECDB9"/>
<path d="M219.007 112.868L135.38 116.302L145.877 138.813L228.037 135.439L219.007 112.868Z" fill="#E5DAC9"/>
<path d="M198.428 86.9211L173.424 84.9149L218.312 112.896L239.313 112.034L198.428 86.9211Z" fill="#D9C6AA"/>
<path d="M83.2668 81.7346L95.9736 88.0955L174.423 84.8739L163.216 78.4515L83.2668 81.7346Z" fill="#E9DFD6"/>
<path d="M83 89.2018L94.9923 88.7093L134.88 116.323L120.889 116.897L83 89.2018Z" fill="#E7DCD3"/>
<ellipse cx="1.87557" cy="3.225" rx="1.87557" ry="3.225" transform="matrix(0.999887 0.0150646 -0.0114637 0.999934 185.875 138.318)" fill="#5F5757"/>
<ellipse cx="2.00005" cy="3.43905" rx="2.00005" ry="3.43905" transform="matrix(0.999887 0.0150646 -0.0114637 0.999934 173.901 138.809)" fill="#5F5757"/>
<ellipse cx="2.44549" cy="1.52088" rx="2.44549" ry="1.52088" transform="matrix(0.999357 0.035861 -0.0272953 0.999627 168.276 147.719)" fill="#FED6C9"/>
<ellipse cx="2.4456" cy="1.52083" rx="2.4456" ry="1.52083" transform="matrix(0.999158 -0.0410312 0.0312331 0.999512 190.883 147.289)" fill="#FED6C9"/>
<path d="M183.403 152.776C183.084 153.188 182.464 153.192 182.142 152.784L180.306 150.457C179.894 149.934 180.264 149.165 180.931 149.161L184.58 149.139C185.247 149.135 185.624 149.899 185.217 150.427L183.403 152.776Z" fill="#E88C8C"/>
<g filter="url(#filter0_d_1535_2593)">
<rect x="133" y="53.8723" width="6" height="18" transform="rotate(-28.6016 133 53.8723)" fill="#F9F59F"/>
</g>
<g filter="url(#filter1_d_1535_2593)">
<rect x="159" y="46.084" width="6" height="18" transform="rotate(-0.802658 159 46.084)" fill="#F9F59F"/>
</g>
<g filter="url(#filter2_d_1535_2593)">
<rect x="185.476" y="51.1302" width="6" height="18" transform="rotate(28.0582 185.476 51.1302)" fill="#F9F59F"/>
</g>
<defs>
<filter id="filter0_d_1535_2593" x="129" y="51" width="21.8848" height="26.6758" filterUnits="userSpaceOnUse" color-interpolation-filters="sRGB">
<feFlood flood-opacity="0" result="BackgroundImageFix"/>
<feColorMatrix in="SourceAlpha" type="matrix" values="0 0 0 0 0 0 0 0 0 0 0 0 0 0 0 0 0 0 127 0" result="hardAlpha"/>
<feOffset dy="4"/>
<feGaussianBlur stdDeviation="2"/>
<feComposite in2="hardAlpha" operator="out"/>
<feColorMatrix type="matrix" values="0 0 0 0 0 0 0 0 0 0 0 0 0 0 0 0 0 0 0.25 0"/>
<feBlend mode="normal" in2="BackgroundImageFix" result="effect1_dropShadow_1535_2593"/>
<feBlend mode="normal" in="SourceGraphic" in2="effect1_dropShadow_1535_2593" result="shape"/>
</filter>
<filter id="filter1_d_1535_2593" x="155" y="46" width="14.2515" height="26.0823" filterUnits="userSpaceOnUse" color-interpolation-filters="sRGB">
<feFlood flood-opacity="0" result="BackgroundImageFix"/>
<feColorMatrix in="SourceAlpha" type="matrix" values="0 0 0 0 0 0 0 0 0 0 0 0 0 0 0 0 0 0 127 0" result="hardAlpha"/>
<feOffset dy="4"/>
<feGaussianBlur stdDeviation="2"/>
<feComposite in2="hardAlpha" operator="out"/>
<feColorMatrix type="matrix" values="0 0 0 0 0 0 0 0 0 0 0 0 0 0 0 0 0 0 0.25 0"/>
<feBlend mode="normal" in2="BackgroundImageFix" result="effect1_dropShadow_1535_2593"/>
<feBlend mode="normal" in="SourceGraphic" in2="effect1_dropShadow_1535_2593" result="shape"/>
</filter>
<filter id="filter2_d_1535_2593" x="173.009" y="51.1302" width="21.7615" height="26.7067" filterUnits="userSpaceOnUse" color-interpolation-filters="sRGB">
<feFlood flood-opacity="0" result="BackgroundImageFix"/>
<feColorMatrix in="SourceAlpha" type="matrix" values="0 0 0 0 0 0 0 0 0 0 0 0 0 0 0 0 0 0 127 0" result="hardAlpha"/>
<feOffset dy="4"/>
<feGaussianBlur stdDeviation="2"/>
<feComposite in2="hardAlpha" operator="out"/>
<feColorMatrix type="matrix" values="0 0 0 0 0 0 0 0 0 0 0 0 0 0 0 0 0 0 0.25 0"/>
<feBlend mode="normal" in2="BackgroundImageFix" result="effect1_dropShadow_1535_2593"/>
<feBlend mode="normal" in="SourceGraphic" in2="effect1_dropShadow_1535_2593" result="shape"/>
</filter>
</defs>
</svg>
