<svg width="322" height="44" viewBox="0 0 322 44" fill="none" xmlns="http://www.w3.org/2000/svg">
<rect x="0.5" y="0.5" width="321" height="43" rx="21.5" stroke="#2D9CDB"/>
<path d="M97.4173 15.436H98.5373V28.092H97.4173V15.436ZM93.2453 20.252H95.3453V21.274H93.2453V20.252ZM94.9673 15.744H96.0733V27.434H94.9673V15.744ZM87.8413 17.032H93.6233V17.984H87.8413V17.032ZM87.7293 24.984L87.5893 24.004C89.2273 24.004 91.9713 23.948 93.8893 23.696L93.9733 24.55C91.9993 24.928 89.3533 24.984 87.7293 24.984ZM88.8773 17.648H89.9413V24.27H88.8773V17.648ZM91.5093 17.648H92.5733V24.27H91.5093V17.648ZM109.792 15.422H110.954V28.106H109.792V15.422ZM104.276 16.402C106.152 16.402 107.496 18.124 107.496 20.812C107.496 23.514 106.152 25.236 104.276 25.236C102.414 25.236 101.07 23.514 101.07 20.812C101.07 18.124 102.414 16.402 104.276 16.402ZM104.276 17.452C103.044 17.452 102.176 18.768 102.176 20.812C102.176 22.87 103.044 24.214 104.276 24.214C105.522 24.214 106.376 22.87 106.376 20.812C106.376 18.768 105.522 17.452 104.276 17.452ZM118.555 16.304H119.563V17.27C119.563 20.028 117.001 22.17 114.467 22.744L113.949 21.778C116.175 21.358 118.555 19.426 118.555 17.27V16.304ZM118.765 16.304H119.773V17.27C119.773 19.44 122.167 21.358 124.379 21.778L123.861 22.744C121.341 22.17 118.765 20.042 118.765 17.27V16.304ZM113.487 25.432H124.953V26.384H113.487V25.432ZM131.49 22.254H132.638V24.438H131.49V22.254ZM126.352 21.624H137.79V22.576H126.352V21.624ZM127.626 24.046H136.376V28.092H135.214V24.984H127.626V24.046ZM127.878 15.73H129.026V17.158H135.144V15.73H136.306V20.462H127.878V15.73ZM129.026 18.068V19.538H135.144V18.068H129.026ZM147.782 18.95H150.596V19.888H147.782V18.95ZM147.684 22.128H150.568V23.066H147.684V22.128ZM152.514 15.436H153.634V28.092H152.514V15.436ZM149.98 15.758H151.072V27.448H149.98V15.758ZM147.152 17.032H148.272C148.272 20.35 146.942 23.332 143.54 25.362L142.868 24.536C145.822 22.744 147.152 20.224 147.152 17.242V17.032ZM143.428 17.032H147.614V17.984H143.428V17.032ZM162.509 18.712H165.365V19.678H162.509V18.712ZM165.001 15.436H166.163V22.982H165.001V15.436ZM162.005 23.36C164.609 23.36 166.219 24.242 166.219 25.726C166.219 27.224 164.609 28.078 162.005 28.078C159.387 28.078 157.777 27.224 157.777 25.726C157.777 24.242 159.387 23.36 162.005 23.36ZM162.005 24.27C160.101 24.27 158.939 24.802 158.939 25.726C158.939 26.636 160.101 27.168 162.005 27.168C163.909 27.168 165.071 26.636 165.071 25.726C165.071 24.802 163.909 24.27 162.005 24.27ZM158.981 16.71H159.933V17.732C159.933 20.07 158.505 22.072 156.405 22.856L155.803 21.932C157.679 21.246 158.981 19.552 158.981 17.732V16.71ZM159.205 16.71H160.143V17.732C160.143 19.37 161.375 20.938 163.209 21.582L162.621 22.506C160.563 21.764 159.205 19.86 159.205 17.732V16.71ZM156.153 16.36H162.915V17.312H156.153V16.36ZM174.351 16.234C176.983 16.234 178.943 17.634 178.943 19.734C178.943 21.848 176.983 23.234 174.351 23.234C171.719 23.234 169.745 21.848 169.745 19.734C169.745 17.634 171.719 16.234 174.351 16.234ZM174.351 17.186C172.349 17.186 170.865 18.208 170.865 19.734C170.865 21.246 172.349 22.282 174.351 22.282C176.353 22.282 177.837 21.246 177.837 19.734C177.837 18.208 176.353 17.186 174.351 17.186ZM168.639 25.446H180.105V26.426H168.639V25.446ZM181.518 25.572H192.984V26.538H181.518V25.572ZM186.642 22.856H187.804V25.978H186.642V22.856ZM182.904 16.374H191.57V20.21H184.094V22.744H182.946V19.272H190.422V17.312H182.904V16.374ZM182.946 22.254H191.864V23.206H182.946V22.254ZM198.034 25.572H209.5V26.538H198.034V25.572ZM203.158 22.856H204.32V25.978H203.158V22.856ZM199.42 16.374H208.086V20.21H200.61V22.744H199.462V19.272H206.938V17.312H199.42V16.374ZM199.462 22.254H208.38V23.206H199.462V22.254ZM212.145 16.78H220.293V17.718H212.145V16.78ZM210.913 25.278H222.351V26.244H210.913V25.278ZM219.677 16.78H220.811V18.04C220.811 19.664 220.811 21.47 220.335 24.2L219.173 24.088C219.677 21.498 219.677 19.608 219.677 18.04V16.78ZM232.99 15.45H234.166V24.69H232.99V15.45ZM226.032 26.86H234.544V27.812H226.032V26.86ZM226.032 23.738H227.18V27.182H226.032V23.738ZM227.376 16.318C229.266 16.318 230.666 17.606 230.666 19.44C230.666 21.26 229.266 22.562 227.376 22.562C225.486 22.562 224.072 21.26 224.072 19.44C224.072 17.606 225.486 16.318 227.376 16.318ZM227.376 17.326C226.144 17.326 225.206 18.194 225.206 19.44C225.206 20.672 226.144 21.54 227.376 21.54C228.608 21.54 229.546 20.672 229.546 19.44C229.546 18.194 228.608 17.326 227.376 17.326Z" fill="#767676"/>
<path d="M31 12H28C26.6739 12 25.4021 12.5268 24.4645 13.4645C23.5268 14.4021 23 15.6739 23 17V20H20V24H23V32H27V24H30L31 20H27V17C27 16.7348 27.1054 16.4804 27.2929 16.2929C27.4804 16.1054 27.7348 16 28 16H31V12Z" fill="#2D9CDB"/>
</svg>
