<svg width="17" height="20" viewBox="0 0 17 20" fill="none" xmlns="http://www.w3.org/2000/svg">
<path d="M12.5587 5.43833C11.4583 4.65251 8.34619 3.50486 9.4406 0.880167C5.87544 2.42591 5.95714 7.79699 5.95714 7.79699L5.22357 7.4827C3.48658 6.48404 3.5726 3.14394 3.57278 4.65346C3.57298 6.34482 1.92253 6.38276 3.57327 8.74042C5.22401 11.0981 7.80251 13.8463 5.2244 14.3991C4.59912 14.5332 0.639488 11.7274 0.639488 11.7274C0.639488 11.7274 5.43877 19.9276 10.3597 18.957C12.2703 19.8746 14.944 16.913 15.6771 13.1403C16.4102 9.36764 16.0429 5.28072 15.6763 6.53829C15.3097 7.79587 14.0262 8.89636 14.026 7.79602C14.0259 6.69568 13.6591 6.22415 12.5587 5.43833Z" fill="#BA2323"/>
<path d="M11.3981 10.3784C10.8998 9.94773 9.49083 9.31868 9.9863 7.88014C8.37218 8.72729 8.40923 11.6711 8.40923 11.6711L8.0771 11.4988C7.29066 10.9515 7.32957 9.12081 7.32967 9.94816C7.32978 10.8752 6.58253 10.8959 7.32994 12.1882C8.07734 13.4804 9.24479 14.9867 8.07756 15.2896C7.79446 15.3631 6.00169 13.8253 6.00169 13.8253C6.00169 13.8253 8.17468 18.3197 10.4026 17.7878C11.2677 18.2908 12.4782 16.6676 12.81 14.5998C13.1419 12.5321 12.9756 10.2921 12.8096 10.9813C12.6436 11.6706 12.0625 12.2737 12.0624 11.6707C12.0624 11.0676 11.8963 10.8091 11.3981 10.3784Z" fill="#E38126"/>
</svg>
