<svg width="193" height="203" viewBox="0 0 193 203" fill="none" xmlns="http://www.w3.org/2000/svg">
<g filter="url(#filter0_d_1142_1932)">
<path d="M54.4789 6.29321C76.6901 24.8488 53.0946 174.009 5.72335 75.4366C15.2585 142.634 25.9301 167.117 55.5905 184.415C112.263 203.931 136.129 194.936 172.627 158.171C196.86 120.931 192.376 92.6026 144.076 25.4815C130.853 8.29539 144.34 69.2022 130.183 81.6909C132.681 34.7154 32.2677 -12.2624 54.4789 6.29321Z" fill="#E73C3C"/>
</g>
<path d="M86.3151 66.3092C83.6741 59.2371 70.1409 161.567 43.7793 118.432C42.6155 160.767 51.8516 163.23 68.3292 176.458C100.93 186.653 110.253 187.57 143.254 170.268C164.831 149.417 174.447 138.307 151.698 92.6981C145.344 80.9469 139.78 98.2159 130.339 112.651C136.803 83.8412 88.9562 73.3814 86.3151 66.3092Z" fill="#FDA554"/>
<ellipse cx="85.1389" cy="143.36" rx="6.78586" ry="6.46376" transform="rotate(2.87678 85.1389 143.36)" fill="black"/>
<g filter="url(#filter1_d_1142_1932)">
<ellipse cx="87.6417" cy="143.266" rx="2.37123" ry="2.33441" transform="rotate(2.87678 87.6417 143.266)" fill="white"/>
</g>
<path d="M129.538 143.648C129.359 147.214 126.18 149.951 122.437 149.763C118.694 149.575 115.805 146.532 115.984 142.967C116.163 139.402 119.342 136.664 123.085 136.852C126.828 137.04 129.717 140.083 129.538 143.648Z" fill="black"/>
<g filter="url(#filter2_f_1142_1932)">
<ellipse cx="10.5704" cy="4.51238" rx="10.5704" ry="4.51238" transform="matrix(0.999977 -0.00674236 0.012545 0.999921 129.81 153.71)" fill="#FF6A3C"/>
<ellipse cx="10.5704" cy="4.51238" rx="10.5704" ry="4.51238" transform="matrix(0.999977 -0.00674236 0.012545 0.999921 59.3433 154.185)" fill="#FF6A3C"/>
</g>
<ellipse cx="119.87" cy="143.641" rx="2.37123" ry="2.33441" transform="rotate(2.87678 119.87 143.641)" fill="white"/>
<defs>
<filter id="filter0_d_1142_1932" x="1.72314" y="2.14368" width="189.262" height="200.32" filterUnits="userSpaceOnUse" color-interpolation-filters="sRGB">
<feFlood flood-opacity="0" result="BackgroundImageFix"/>
<feColorMatrix in="SourceAlpha" type="matrix" values="0 0 0 0 0 0 0 0 0 0 0 0 0 0 0 0 0 0 127 0" result="hardAlpha"/>
<feOffset dy="4"/>
<feGaussianBlur stdDeviation="2"/>
<feComposite in2="hardAlpha" operator="out"/>
<feColorMatrix type="matrix" values="0 0 0 0 0 0 0 0 0 0 0 0 0 0 0 0 0 0 0.25 0"/>
<feBlend mode="normal" in2="BackgroundImageFix" result="effect1_dropShadow_1142_1932"/>
<feBlend mode="normal" in="SourceGraphic" in2="effect1_dropShadow_1142_1932" result="shape"/>
</filter>
<filter id="filter1_d_1142_1932" x="81.2705" y="140.931" width="12.7422" height="12.6691" filterUnits="userSpaceOnUse" color-interpolation-filters="sRGB">
<feFlood flood-opacity="0" result="BackgroundImageFix"/>
<feColorMatrix in="SourceAlpha" type="matrix" values="0 0 0 0 0 0 0 0 0 0 0 0 0 0 0 0 0 0 127 0" result="hardAlpha"/>
<feOffset dy="4"/>
<feGaussianBlur stdDeviation="2"/>
<feComposite in2="hardAlpha" operator="out"/>
<feColorMatrix type="matrix" values="0 0 0 0 0 0 0 0 0 0 0 0 0 0 0 0 0 0 0.25 0"/>
<feBlend mode="normal" in2="BackgroundImageFix" result="effect1_dropShadow_1142_1932"/>
<feBlend mode="normal" in="SourceGraphic" in2="effect1_dropShadow_1142_1932" result="shape"/>
</filter>
<filter id="filter2_f_1142_1932" x="56.3999" y="150.638" width="97.6069" height="15.5001" filterUnits="userSpaceOnUse" color-interpolation-filters="sRGB">
<feFlood flood-opacity="0" result="BackgroundImageFix"/>
<feBlend mode="normal" in="SourceGraphic" in2="BackgroundImageFix" result="shape"/>
<feGaussianBlur stdDeviation="1.5" result="effect1_foregroundBlur_1142_1932"/>
</filter>
</defs>
</svg>
