<svg width="322" height="44" viewBox="0 0 322 44" fill="none" xmlns="http://www.w3.org/2000/svg">
<rect x="0.5" y="0.5" width="321" height="43" rx="21.5" stroke="#767676"/>
<path d="M100.536 16.262H108.446V17.2H100.536V16.262ZM99.1082 21.694H110.546V22.646H99.1082V21.694ZM104.218 22.324H105.38V28.106H104.218V22.324ZM107.9 16.262H109.034V17.354C109.034 18.67 109.034 20.154 108.558 22.296L107.41 22.142C107.9 20.098 107.9 18.628 107.9 17.354V16.262ZM113.443 15.968H121.591V16.906H113.443V15.968ZM111.987 20.14H123.453V21.092H111.987V20.14ZM120.835 15.968H121.969V16.78C121.969 17.69 121.969 18.866 121.633 20.434L120.499 20.308C120.835 18.768 120.835 17.676 120.835 16.78V15.968ZM113.331 22.338H122.011V25.558H114.521V27.322H113.359V24.662H120.863V23.276H113.331V22.338ZM113.359 27.014H122.333V27.952H113.359V27.014ZM133.403 18.95H136.217V19.888H133.403V18.95ZM133.305 22.128H136.189V23.066H133.305V22.128ZM138.135 15.436H139.255V28.092H138.135V15.436ZM135.601 15.758H136.693V27.448H135.601V15.758ZM132.773 17.032H133.893C133.893 20.35 132.563 23.332 129.161 25.362L128.489 24.536C131.443 22.744 132.773 20.224 132.773 17.242V17.032ZM129.049 17.032H133.235V17.984H129.049V17.032ZM148.13 18.712H150.986V19.678H148.13V18.712ZM150.622 15.436H151.784V22.982H150.622V15.436ZM147.626 23.36C150.23 23.36 151.84 24.242 151.84 25.726C151.84 27.224 150.23 28.078 147.626 28.078C145.008 28.078 143.398 27.224 143.398 25.726C143.398 24.242 145.008 23.36 147.626 23.36ZM147.626 24.27C145.722 24.27 144.56 24.802 144.56 25.726C144.56 26.636 145.722 27.168 147.626 27.168C149.53 27.168 150.692 26.636 150.692 25.726C150.692 24.802 149.53 24.27 147.626 24.27ZM144.602 16.71H145.554V17.732C145.554 20.07 144.126 22.072 142.026 22.856L141.424 21.932C143.3 21.246 144.602 19.552 144.602 17.732V16.71ZM144.826 16.71H145.764V17.732C145.764 19.37 146.996 20.938 148.83 21.582L148.242 22.506C146.184 21.764 144.826 19.86 144.826 17.732V16.71ZM141.774 16.36H148.536V17.312H141.774V16.36ZM159.973 16.234C162.605 16.234 164.565 17.634 164.565 19.734C164.565 21.848 162.605 23.234 159.973 23.234C157.341 23.234 155.367 21.848 155.367 19.734C155.367 17.634 157.341 16.234 159.973 16.234ZM159.973 17.186C157.971 17.186 156.487 18.208 156.487 19.734C156.487 21.246 157.971 22.282 159.973 22.282C161.975 22.282 163.459 21.246 163.459 19.734C163.459 18.208 161.975 17.186 159.973 17.186ZM154.261 25.446H165.727V26.426H154.261V25.446ZM167.139 25.572H178.605V26.538H167.139V25.572ZM172.263 22.856H173.425V25.978H172.263V22.856ZM168.525 16.374H177.191V20.21H169.715V22.744H168.567V19.272H176.043V17.312H168.525V16.374ZM168.567 22.254H177.485V23.206H168.567V22.254ZM183.655 25.572H195.121V26.538H183.655V25.572ZM188.779 22.856H189.941V25.978H188.779V22.856ZM185.041 16.374H193.707V20.21H186.231V22.744H185.083V19.272H192.559V17.312H185.041V16.374ZM185.083 22.254H194.001V23.206H185.083V22.254ZM197.766 16.78H205.914V17.718H197.766V16.78ZM196.534 25.278H207.972V26.244H196.534V25.278ZM205.298 16.78H206.432V18.04C206.432 19.664 206.432 21.47 205.956 24.2L204.794 24.088C205.298 21.498 205.298 19.608 205.298 18.04V16.78ZM218.611 15.45H219.787V24.69H218.611V15.45ZM211.653 26.86H220.165V27.812H211.653V26.86ZM211.653 23.738H212.801V27.182H211.653V23.738ZM212.997 16.318C214.887 16.318 216.287 17.606 216.287 19.44C216.287 21.26 214.887 22.562 212.997 22.562C211.107 22.562 209.693 21.26 209.693 19.44C209.693 17.606 211.107 16.318 212.997 16.318ZM212.997 17.326C211.765 17.326 210.827 18.194 210.827 19.44C210.827 20.672 211.765 21.54 212.997 21.54C214.229 21.54 215.167 20.672 215.167 19.44C215.167 18.194 214.229 17.326 212.997 17.326Z" fill="#767676"/>
<path d="M34.9999 22.2069C34.9999 21.6016 34.9463 21.0269 34.8543 20.4675H26.1953V23.9234H31.1532C30.9309 25.0575 30.2796 26.0154 29.3141 26.6667V28.9655H32.2719C34.0037 27.364 34.9999 25.0039 34.9999 22.2069Z" fill="#4285F4"/>
<path d="M26.1952 31.1954C28.6779 31.1954 30.7546 30.3678 32.2718 28.9655L29.3139 26.6667C28.4864 27.2184 27.4366 27.5556 26.1952 27.5556C23.7967 27.5556 21.7661 25.9387 21.0381 23.7548H17.9883V26.1226C19.4979 29.1265 22.6013 31.1954 26.1952 31.1954Z" fill="#34A853"/>
<path d="M21.0383 23.7548C20.8467 23.2031 20.7471 22.6131 20.7471 22C20.7471 21.387 20.8544 20.797 21.0383 20.2453V17.8774H17.9885C17.3602 19.1188 17 20.5135 17 22C17 23.4866 17.3602 24.8813 17.9885 26.1226L21.0383 23.7548Z" fill="#FBBC05"/>
<path d="M26.1952 16.4445C27.5515 16.4445 28.7622 16.9119 29.7201 17.8238L32.3408 15.2031C30.7546 13.7165 28.6779 12.8046 26.1952 12.8046C22.6013 12.8046 19.4979 14.8736 17.9883 17.8774L21.0381 20.2452C21.7661 18.0613 23.7967 16.4445 26.1952 16.4445Z" fill="#EA4335"/>
</svg>
