<svg width="28" height="28" viewBox="0 0 28 28" fill="none" xmlns="http://www.w3.org/2000/svg">
<path d="M10.1228 10.2339L4.64912 26.7823H14.6842M10.1228 10.2339H11.7953M10.1228 10.2339C9.92087 10.8551 9.75121 11.5954 9.40258 12.4113M19.2456 10.2339L14.6842 26.7823M19.2456 10.2339V17.2016M19.2456 10.2339L23.0948 21.5565M19.2456 10.2339C17.8772 14.4435 13.8023 24.1258 12.0994 25.6935M19.2456 10.2339C21.1715 14.6613 25.3275 23.7339 26.5439 24.6048M19.2456 10.2339H11.7953M19.2456 26.7823H14.6842M19.2456 26.7823V17.2016M19.2456 26.7823H22.0585M19.2456 17.2016L22.0585 26.7823M19.2456 17.2016L23.0948 21.5565M22.0585 26.7823H24.8713L23.0948 21.5565M22.0585 26.7823L22.5766 24.1694L23.0948 21.5565M2.21637 27L1 23.9516L1.76023 25.6935C2.78257 24.7524 5.09818 20.8866 7.08187 17.0361M11.2143 23.9516L12.4035 26.7823M27 23.0806L26.2398 25.6935M11.7953 1C11.7953 1 10.308 2.08387 9.82143 2.25806M11.7953 1C11.7953 1 13.0492 2.08387 13.5357 2.25806M11.7953 1C11.9121 2.25806 11.7953 3.09677 11.7953 3.09677M11.7953 10.2339V5.6129M11.7953 3.09677C11.6786 3.23387 10.8966 4.42553 9.35714 4.35484M11.7953 3.09677C11.9474 3.45968 13.5357 4.35484 14.4643 4.35484M11.7953 3.09677V5.6129M11.7953 5.6129C11.694 5.97581 9.82143 6.87097 8.89286 6.03226M11.7953 5.6129C11.846 5.97581 14 6.87097 14.9286 6.03226M7.08187 6.03226C6.92982 6.39516 5.31813 7.40323 4.95322 7.40323M7.08187 6.03226C7.18324 6.39516 8.84561 7.40323 9.21053 7.40323M7.08187 6.03226V8.05645M7.08187 17.0361V11.7581M7.08187 17.0361C7.91485 15.4193 8.80699 13.8051 9.40258 12.4113M7.08187 8.05645C6.87914 8.49194 5.37894 9.10161 4.64912 8.92742M7.08187 8.05645C7.2846 8.49194 8.4807 9.10161 9.21053 8.92742M7.08187 8.05645V9.58064M7.08187 9.58064C6.91722 10.3144 5.20341 10.9636 4.25 10.4516M7.08187 9.58064C7.23392 10.1613 8.98318 10.8871 10.0475 10.4516M7.08187 9.58064V11.7581M7.08187 11.7581C6.92982 12.5564 4.69799 13.0645 3.78571 12.4113M7.08187 11.7581C7.33418 12.121 8.33825 13.0645 9.40258 12.4113" stroke="var(--icon-active-off)" stroke-width="1.2"/>
</svg>
