<svg width="22" height="22" viewBox="0 0 22 22" fill="none" xmlns="http://www.w3.org/2000/svg">
<path d="M11 1H6C3.23858 1 1 3.23858 1 6V16C1 18.7614 3.23858 21 6 21H11" stroke="#767676" stroke-width="2" stroke-linecap="round"/>
<path d="M7.66663 10C7.11434 10 6.66663 10.4477 6.66663 11C6.66663 11.5523 7.11434 12 7.66663 12L7.66663 10ZM21.7071 11.7071C22.0976 11.3166 22.0976 10.6834 21.7071 10.2929L15.3431 3.92893C14.9526 3.53841 14.3194 3.53841 13.9289 3.92893C13.5384 4.31946 13.5384 4.95262 13.9289 5.34315L19.5857 11L13.9289 16.6569C13.5384 17.0474 13.5384 17.6805 13.9289 18.0711C14.3194 18.4616 14.9526 18.4616 15.3431 18.0711L21.7071 11.7071ZM7.66663 12L21 12L21 10L7.66663 10L7.66663 12Z" fill="#767676"/>
</svg>
