<svg width="220" height="18" viewBox="0 0 220 18" fill="none" xmlns="http://www.w3.org/2000/svg">
<path d="M0.941797 1.22H8.3618V2.68C8.3618 3.4 8.1818 4.14667 7.8218 4.92C7.4618 5.68 6.9618 6.42 6.3218 7.14C5.6818 7.86 4.92846 8.52667 4.0618 9.14C3.19513 9.74 2.25513 10.24 1.2418 10.64V8.28C1.98846 7.96 2.56846 7.64 2.9818 7.32C3.39513 7 3.72846 6.68 3.9818 6.36H1.3418V4.48H5.3418C5.44846 4.32 5.5418 4.15333 5.6218 3.98C5.7018 3.79333 5.75513 3.58667 5.7818 3.36H0.941797V1.22ZM13.2018 0.419999H15.4818V10.14H13.2018V6.76H11.7218V10.14H9.4418V0.419999H11.7218V4.84H13.2018V0.419999ZM3.5218 11.14H15.4018V17.14H3.5218V11.14ZM13.2018 14.98V13.3H5.7018V14.98H13.2018ZM16.684 1.08H26.204V3.14H16.684V1.08ZM25.204 4.04L24.004 7.46H26.004V9.48H16.684V7.46H18.884L17.684 4.04H19.904L20.964 7.46H21.904L22.984 4.04H25.204ZM27.644 0.4H30.204V9.82H27.644V0.4ZM20.544 11.5H27.824C28.184 11.5 28.5173 11.54 28.824 11.62C29.144 11.7 29.4173 11.8267 29.644 12C29.884 12.1733 30.0707 12.3933 30.204 12.66C30.3373 12.9267 30.404 13.2467 30.404 13.62V15.06C30.404 15.74 30.1907 16.2733 29.764 16.66C29.3373 17.0467 28.764 17.24 28.044 17.24H20.364C19.6307 17.24 19.044 17.0333 18.604 16.62C18.1773 16.22 17.964 15.7333 17.964 15.16V13.64C17.964 13.2533 18.044 12.9267 18.204 12.66C18.3773 12.38 18.5907 12.16 18.844 12C19.0973 11.8267 19.3707 11.7 19.664 11.62C19.9707 11.54 20.264 11.5 20.544 11.5ZM27.124 13.64H21.444C21.0573 13.64 20.8107 13.7 20.704 13.82C20.5973 13.9267 20.5373 14.0533 20.524 14.2L20.504 14.72C20.504 14.8667 20.524 14.98 20.564 15.06C20.6173 15.14 20.6907 15.1933 20.784 15.22C20.8773 15.26 20.9773 15.28 21.084 15.28C21.204 15.2933 21.3307 15.3 21.464 15.3H27.164C27.404 15.3 27.6107 15.2467 27.784 15.14C27.9573 15.0333 28.044 14.8867 28.044 14.7V14.32C28.044 14.1333 27.9573 13.9733 27.784 13.84C27.6107 13.7067 27.3907 13.64 27.124 13.64ZM40.3259 1.94V8.76H34.4059V11.56H40.9259V13.68H31.8459V6.4H37.9659V4.28H31.6059V1.94H40.3259ZM46.6259 0.419999V17.3H44.0459V8.64H41.4659V5.8H44.0459V0.419999H46.6259ZM49.7968 12.84H58.3168V11.92H49.7968V10.26H61.1368V14.7H52.3368V15.5H61.1368V17.36H49.7168L49.7968 17.34V12.84ZM52.5368 2.42V4.34H60.9168V6.16H49.9168V0.4H60.9168V2.42H52.5368ZM63.0168 9.34H47.8168V7.22H63.0168V9.34ZM78.643 0.419999V17.26H75.643V12.14C75.1497 12.58 74.6097 12.9533 74.023 13.26C73.4364 13.5667 72.8297 13.8267 72.203 14.04C71.5764 14.24 70.943 14.4 70.303 14.52C69.663 14.64 69.0497 14.7267 68.463 14.78C67.0764 14.9267 65.663 14.94 64.223 14.82V12.06C64.9564 12.2067 65.7164 12.28 66.503 12.28C67.303 12.2667 68.0897 12.2067 68.863 12.1C69.6497 11.9933 70.403 11.86 71.123 11.7C71.8564 11.5267 72.5164 11.3533 73.103 11.18C73.703 11.0067 74.2164 10.8467 74.643 10.7C75.083 10.54 75.403 10.42 75.603 10.34V0.419999H78.643ZM70.323 0.86C70.7364 0.86 71.1097 0.933333 71.443 1.08C71.7764 1.21333 72.063 1.40667 72.303 1.66C72.543 1.91333 72.723 2.20667 72.843 2.54C72.9764 2.87333 73.043 3.22667 73.043 3.6V6.32C73.043 7.16 72.783 7.82667 72.263 8.32C71.743 8.8 71.023 9.04 70.103 9.04H67.703C67.343 9.04 66.9964 8.98 66.663 8.86C66.3297 8.74 66.0297 8.57333 65.763 8.36C65.5097 8.13333 65.303 7.86667 65.143 7.56C64.9964 7.24 64.923 6.89333 64.923 6.52V3.6C64.923 3.22667 64.9897 2.87333 65.123 2.54C65.2697 2.20667 65.463 1.91333 65.703 1.66C65.9564 1.40667 66.2497 1.21333 66.583 1.08C66.9297 0.933333 67.303 0.86 67.703 0.86H70.323ZM70.623 4.12C70.623 3.8 70.5097 3.53333 70.283 3.32C70.0697 3.09333 69.7964 2.98 69.463 2.98H68.603C68.2697 2.98 67.9764 3.09333 67.723 3.32C67.4697 3.53333 67.343 3.8 67.343 4.12V5.78C67.343 6.11333 67.4697 6.39333 67.723 6.62C67.9764 6.83333 68.2697 6.94 68.603 6.94H69.463C69.7964 6.94 70.0697 6.83333 70.283 6.62C70.5097 6.39333 70.623 6.11333 70.623 5.78V4.12ZM87.4262 6.26H94.4462V8.72H84.9262V1.18H87.4262V6.26ZM100.246 4.02V6.38H97.9862V10.28H95.6062V0.4H97.9862V4.02H100.246ZM88.6662 11.54H95.5662C95.9262 11.54 96.2595 11.5867 96.5662 11.68C96.8728 11.76 97.1395 11.8933 97.3662 12.08C97.6062 12.2533 97.7928 12.48 97.9262 12.76C98.0595 13.0267 98.1262 13.34 98.1262 13.7V15.14C98.1262 15.42 98.0662 15.6867 97.9462 15.94C97.8395 16.1933 97.6862 16.42 97.4862 16.62C97.2995 16.82 97.0728 16.9733 96.8062 17.08C96.5395 17.2 96.2528 17.26 95.9462 17.26H88.0662C87.4262 17.26 86.8995 17.06 86.4862 16.66C86.0728 16.26 85.8662 15.72 85.8662 15.04V13.62C85.8662 12.86 86.1195 12.3267 86.6262 12.02C87.1328 11.7 87.8128 11.54 88.6662 11.54ZM95.7662 14.72V14.3C95.7662 14.14 95.6928 14 95.5462 13.88C95.4128 13.7467 95.2528 13.68 95.0662 13.68H89.2862C88.8995 13.68 88.6595 13.7467 88.5662 13.88C88.4862 14.0133 88.4462 14.1467 88.4462 14.28V14.78C88.4462 14.98 88.5195 15.12 88.6662 15.2C88.8128 15.28 89.0195 15.32 89.2862 15.32H95.0862C95.5395 15.32 95.7662 15.12 95.7662 14.72ZM109.451 1.38V9.62H101.371V1.38H109.451ZM102.531 16.86V11.5H105.271V14.5H114.871V16.86H102.531ZM116.711 6.48H114.371V11.52H111.691V0.419999H114.371V4.12H116.711V6.48ZM106.891 3.72H103.931V7.26H106.891V3.72ZM123.214 0.899999C123.574 0.899999 123.914 0.973333 124.234 1.12C124.554 1.25333 124.834 1.44667 125.074 1.7C125.328 1.95333 125.521 2.24667 125.654 2.58C125.801 2.91333 125.874 3.26667 125.874 3.64V6.4C125.874 6.77333 125.801 7.12667 125.654 7.46C125.521 7.79333 125.328 8.08667 125.074 8.34C124.834 8.58 124.554 8.77333 124.234 8.92C123.914 9.06667 123.574 9.14 123.214 9.14H120.654C120.294 9.14 119.948 9.06667 119.614 8.92C119.281 8.77333 118.988 8.58 118.734 8.34C118.481 8.08667 118.281 7.79333 118.134 7.46C117.988 7.12667 117.914 6.77333 117.914 6.4V3.64C117.914 3.26667 117.988 2.91333 118.134 2.58C118.281 2.24667 118.481 1.95333 118.734 1.7C118.988 1.44667 119.281 1.25333 119.614 1.12C119.948 0.973333 120.294 0.899999 120.654 0.899999H123.214ZM129.094 10.74C129.188 11.4333 129.361 12.1067 129.614 12.76C129.868 13.4133 130.154 14.0267 130.474 14.6C130.794 15.16 131.121 15.6667 131.454 16.12C131.788 16.5733 132.081 16.9467 132.334 17.24H129.714C129.594 17.0933 129.441 16.88 129.254 16.6C129.068 16.3333 128.881 16.04 128.694 15.72C128.521 15.4 128.354 15.08 128.194 14.76C128.048 14.44 127.948 14.1533 127.894 13.9C127.788 14.26 127.661 14.6333 127.514 15.02C127.381 15.3533 127.214 15.7133 127.014 16.1C126.828 16.5 126.601 16.88 126.334 17.24H123.734C123.868 17.0933 123.974 16.9667 124.054 16.86C124.148 16.7533 124.228 16.6467 124.294 16.54C124.374 16.4467 124.448 16.3467 124.514 16.24C124.581 16.1467 124.661 16.0267 124.754 15.88C124.568 15.6533 124.381 15.42 124.194 15.18C124.008 14.94 123.841 14.72 123.694 14.52C123.521 14.2933 123.354 14.0733 123.194 13.86C122.794 15.0333 122.168 16.16 121.314 17.24H118.514C119.021 16.72 119.468 16.16 119.854 15.56C120.254 14.96 120.594 14.3667 120.874 13.78C121.168 13.18 121.401 12.6133 121.574 12.08C121.748 11.5467 121.874 11.1 121.954 10.74H124.394C124.488 11.34 124.661 11.9267 124.914 12.5C125.168 13.0733 125.441 13.5933 125.734 14.06C125.908 13.6333 126.048 13.2267 126.154 12.84C126.274 12.44 126.374 12.0867 126.454 11.78C126.534 11.42 126.608 11.0733 126.674 10.74H129.094ZM131.494 9.86V0.4H128.974V9.86H131.494ZM123.514 5.86V4.16C123.514 3.82667 123.401 3.55333 123.174 3.34C122.961 3.12667 122.688 3.02 122.354 3.02H121.494C121.161 3.02 120.868 3.12667 120.614 3.34C120.361 3.55333 120.234 3.82667 120.234 4.16V5.86C120.234 6.19333 120.361 6.47333 120.614 6.7C120.868 6.91333 121.161 7.02 121.494 7.02H122.354C122.688 7.02 122.961 6.91333 123.174 6.7C123.401 6.47333 123.514 6.19333 123.514 5.86ZM135.719 17.02V11.64H138.079V14.66H147.619V17.02H135.719ZM135.719 6.6V0.84H138.079V4.32H147.419V6.6H135.719ZM149.199 10.4H133.539V8.24H149.199V10.4ZM164.373 3.74H158.253V6.24H163.873V8.54H158.253V11.24H164.773V13.56H155.473V1.44H164.373V3.74ZM168.493 6.04H170.813V8.62H168.493V17.26H165.933V0.639999H168.493V6.04ZM181.056 4.22H177.856C177.843 4.42 177.836 4.70667 177.836 5.08C177.836 5.44 177.856 5.84667 177.896 6.3C177.949 6.75333 178.036 7.22667 178.156 7.72C178.289 8.2 178.476 8.66667 178.716 9.12C178.956 9.56 179.263 9.96 179.636 10.32C180.009 10.68 180.469 10.9533 181.016 11.14V13.46C180.349 13.3 179.723 13.06 179.136 12.74C178.883 12.6067 178.629 12.4467 178.376 12.26C178.123 12.0733 177.876 11.86 177.636 11.62C177.409 11.38 177.196 11.1133 176.996 10.82C176.809 10.5133 176.656 10.1733 176.536 9.8C176.283 10.6 175.909 11.24 175.416 11.72C174.923 12.1867 174.423 12.5533 173.916 12.82C173.329 13.1267 172.703 13.34 172.036 13.46V11.14C172.583 10.9533 173.043 10.68 173.416 10.32C173.789 9.96 174.089 9.56 174.316 9.12C174.556 8.66667 174.729 8.2 174.836 7.72C174.956 7.22667 175.036 6.75333 175.076 6.3C175.129 5.84667 175.149 5.44 175.136 5.08C175.136 4.70667 175.129 4.42 175.116 4.22H172.016V1.98H181.056V4.22ZM185.396 6.04V0.639999H182.616V17.26H185.396V8.62H187.916V6.04H185.396ZM197.845 1.3C197.965 1.82 198.199 2.44667 198.545 3.18C198.892 3.91333 199.292 4.68 199.745 5.48C200.212 6.26667 200.712 7.06 201.245 7.86C201.779 8.64667 202.292 9.36 202.785 10H199.625C199.292 9.53333 198.979 9.1 198.685 8.7C198.405 8.3 198.139 7.90667 197.885 7.52C197.645 7.13333 197.405 6.74 197.165 6.34C196.939 5.92667 196.705 5.48 196.465 5C196.079 5.84 195.619 6.68667 195.085 7.54C194.565 8.38 194.019 9.2 193.445 10H189.925C190.619 9.22667 191.265 8.4 191.865 7.52C192.465 6.64 192.985 5.8 193.425 5C193.879 4.18667 194.239 3.45333 194.505 2.8C194.785 2.14667 194.945 1.64667 194.985 1.3H197.845ZM204.025 15.42H189.125V12.96H195.025V10.1H197.925V12.96H204.025V15.42ZM205.219 1.46H214.119V8.26H208.019V11.06H214.119V13.18H205.459V5.9H211.779V3.82H205.219V1.46ZM219.059 17.28V0.439999H216.439V17.28H219.059Z" fill="#513436"/>
</svg>
