<svg width="258" height="80" viewBox="0 0 258 80" fill="none" xmlns="http://www.w3.org/2000/svg">
<g filter="url(#filter0_d_1147_1932)">
<path fill-rule="evenodd" clip-rule="evenodd" d="M82.8125 25.3009C85.1642 26.7083 87.7563 29.0164 88.9771 32.4623C89.1109 32.84 89.2142 33.2278 89.286 33.622C90.0546 37.8394 90.8646 40.5083 91.9426 42.7632C93.0209 45.0186 94.5462 47.2352 97.2064 50.3548L102.073 56.0616L90.6594 65.7946L85.7929 60.0878C84.6921 58.7969 83.6732 57.5406 82.7331 56.2808C80.7079 58.3796 78.3784 59.9401 75.955 61.0179C72.0353 62.7611 67.8952 63.2391 64.2875 62.8295C61.0261 62.4592 56.7551 61.1692 54.0161 57.7851C47.4429 49.6639 48.3929 37.2305 56.8458 28.4671C62.032 23.0904 69.1142 21.8552 74.7028 22.5738C77.5471 22.9395 80.3761 23.8428 82.8125 25.3009ZM74.4931 37.8755C74.0505 37.701 73.474 37.5393 72.79 37.4513C70.5504 37.1634 68.6905 37.7936 67.6419 38.8807C64.0634 42.5907 64.4269 46.1254 65.327 47.8139C65.485 47.8525 65.6994 47.8934 65.9796 47.9252C67.1149 48.0541 68.5463 47.8962 69.8597 47.3121C71.0865 46.7665 72.2316 45.8489 73.0783 44.2932C73.78 43.0038 74.4359 40.9759 74.4931 37.8755ZM64.9642 47.6934C64.9642 47.6934 64.9746 47.6975 64.9933 47.7082C64.9732 47.6992 64.9642 47.6934 64.9642 47.6934Z" fill="#684D4D"/>
<path fill-rule="evenodd" clip-rule="evenodd" d="M185.67 27.433C188.022 28.8404 190.614 31.1485 191.834 34.5944C191.968 34.9721 192.072 35.3599 192.143 35.7541C192.912 39.9714 193.722 42.6403 194.8 44.8953C195.878 47.1507 197.404 49.3673 200.064 52.4869L204.93 58.1936L193.517 67.9267L188.65 62.2199C187.55 60.929 186.531 59.6727 185.591 58.4128C183.565 60.5117 181.236 62.0722 178.812 63.1499C174.893 64.8931 170.753 65.3711 167.145 64.9616C163.884 64.5913 159.613 63.3013 156.874 59.9172C150.3 51.796 151.25 39.3626 159.703 30.5992C164.889 25.2224 171.972 23.9873 177.56 24.7059C180.405 25.0716 183.234 25.9749 185.67 27.433ZM177.351 40.0076C176.908 39.8331 176.331 39.6714 175.647 39.5834C173.408 39.2955 171.548 39.9257 170.499 41.0128C166.921 44.7228 167.284 48.2575 168.184 49.946C168.342 49.9846 168.557 50.0255 168.837 50.0573C169.972 50.1862 171.404 50.0283 172.717 49.4442C173.944 48.8986 175.089 47.981 175.936 46.4252C176.637 45.1358 177.293 43.1079 177.351 40.0076ZM167.822 49.8255C167.822 49.8251 167.832 49.8296 167.851 49.8402C167.831 49.8313 167.821 49.8259 167.822 49.8255Z" fill="#684D4D"/>
<path fill-rule="evenodd" clip-rule="evenodd" d="M145.857 0V56.9707C145.857 56.9709 145.857 56.9709 138.357 56.9709L145.857 56.9707C145.857 59.7527 144.317 62.3063 141.857 63.6044C133.933 67.785 124.979 68.1047 117.829 65.8167C111.091 63.6606 103.429 58.0719 103.429 48.7373C103.429 41.7587 106.63 34.9986 113.515 30.8708C118.177 28.0759 124.03 26.7787 130.857 26.8996V0L145.857 0ZM130.857 41.9007C125.949 41.7763 122.924 42.7193 121.229 43.7357C119.247 44.924 118.429 46.5678 118.429 48.7372C118.429 48.7385 118.429 48.74 118.429 48.7418C118.428 48.7908 118.422 49.0582 118.931 49.589C119.518 50.2013 120.646 50.9688 122.401 51.5303C124.842 52.3115 127.859 52.4896 130.857 51.8098V41.9007Z" fill="#684D4D"/>
<path fill-rule="evenodd" clip-rule="evenodd" d="M4 1.06592L59 1.06592V16.0659H38.4286V62.9671H23.4286V16.0659H4V1.06592Z" fill="#684D4D"/>
<path fill-rule="evenodd" clip-rule="evenodd" d="M221.286 8.52771V25.2279L239.721 12.5648L248.214 24.929L226.781 39.6508L253.976 59.4132L245.158 71.5476L221.286 54.1996V70.4288H206.286V8.52771H221.286Z" fill="#684D4D"/>
</g>
<defs>
<filter id="filter0_d_1147_1932" x="0" y="0" width="257.976" height="79.5476" filterUnits="userSpaceOnUse" color-interpolation-filters="sRGB">
<feFlood flood-opacity="0" result="BackgroundImageFix"/>
<feColorMatrix in="SourceAlpha" type="matrix" values="0 0 0 0 0 0 0 0 0 0 0 0 0 0 0 0 0 0 127 0" result="hardAlpha"/>
<feOffset dy="4"/>
<feGaussianBlur stdDeviation="2"/>
<feComposite in2="hardAlpha" operator="out"/>
<feColorMatrix type="matrix" values="0 0 0 0 0 0 0 0 0 0 0 0 0 0 0 0 0 0 0.25 0"/>
<feBlend mode="normal" in2="BackgroundImageFix" result="effect1_dropShadow_1147_1932"/>
<feBlend mode="normal" in="SourceGraphic" in2="effect1_dropShadow_1147_1932" result="shape"/>
</filter>
</defs>
</svg>
