<svg width="304" height="228" viewBox="0 0 304 228" fill="none" xmlns="http://www.w3.org/2000/svg">
<path d="M78.8622 168.919C75.0723 164.216 76.0268 157.617 80.9942 154.18L158.168 100.786C163.135 97.3495 170.234 98.3764 174.024 103.08V103.08C177.814 107.783 176.859 114.382 171.892 117.819L94.7186 171.213C89.7512 174.65 82.6521 173.623 78.8622 168.919V168.919Z" fill="#BEB2AB"/>
<path d="M192.223 188.878C186.198 190.367 179.573 186.854 177.425 181.031L147.56 100.042C145.412 94.2195 148.556 88.2917 154.581 86.8024V86.8024C160.606 85.3131 167.23 88.8262 169.378 94.6492L199.244 175.638C201.391 181.461 198.247 187.389 192.223 188.878V188.878Z" fill="#AFA59F"/>
<path d="M209.386 174.024C204.408 176.415 197.914 174.61 194.883 169.993L145.361 94.5617C142.33 89.945 143.908 84.2644 148.887 81.8737L150.908 80.9032C155.887 78.5126 162.38 80.3173 165.411 84.9341L214.934 160.366C217.965 164.982 216.386 170.663 211.407 173.054L209.386 174.024Z" fill="#B19C91"/>
<path d="M100.389 174.614C96.999 171.78 96.7098 166.879 99.7429 163.666L165.215 94.3159C168.248 91.1032 173.455 90.7959 176.845 93.6297L181.946 97.8944C185.336 100.728 185.625 105.63 182.592 108.842L117.12 178.192C114.087 181.405 108.88 181.712 105.49 178.879L100.389 174.614Z" fill="#B5A399"/>
<path d="M233.675 156.325C229.629 160.89 222.18 161.931 217.038 158.651L138.352 108.458C133.209 105.178 132.32 98.8181 136.366 94.2534V94.2534C140.412 89.6888 147.86 88.6475 153.003 91.9278L231.689 142.121C236.831 145.401 237.72 151.761 233.675 156.325V156.325Z" fill="#C2B5AD"/>
<path fill-rule="evenodd" clip-rule="evenodd" d="M111.286 168.478C109.236 167.234 106.966 166.261 105.013 165.694C103.687 165.309 102.793 165.468 102.217 165.849C101.625 166.239 101.243 166.942 101.136 167.87C100.923 169.734 101.87 172.221 103.859 173.769C104.174 174.014 104.526 174.308 104.907 174.626C105.578 175.186 106.338 175.821 107.148 176.4C107.77 176.844 108.384 177.227 108.952 177.479C109.53 177.736 109.994 177.829 110.34 177.779C111.258 177.647 112.256 176.896 112.709 175.909C113.141 174.964 113.054 173.851 111.876 172.935C111.525 172.661 111.123 172.324 110.701 171.969C110.495 171.796 110.283 171.619 110.071 171.443C109.412 170.898 108.724 170.351 108.055 169.911C107.376 169.465 106.763 169.16 106.254 169.055C105.778 168.957 105.453 169.038 105.193 169.31C105.082 169.427 105.039 169.535 105.03 169.643C105.02 169.759 105.049 169.906 105.14 170.09C105.327 170.469 105.727 170.907 106.273 171.379C106.811 171.844 107.451 172.307 108.072 172.743C108.218 172.846 108.364 172.947 108.508 173.047C108.964 173.365 109.396 173.666 109.728 173.924C109.946 174.094 109.968 174.393 109.777 174.593C109.587 174.793 109.256 174.817 109.038 174.647C108.729 174.407 108.33 174.129 107.88 173.816C107.732 173.713 107.579 173.607 107.422 173.496C106.797 173.058 106.122 172.57 105.543 172.07C104.973 171.577 104.453 171.037 104.182 170.488C104.043 170.208 103.959 169.903 103.984 169.588C104.01 169.264 104.151 168.962 104.404 168.696C104.985 168.088 105.75 167.974 106.502 168.13C107.219 168.278 107.97 168.674 108.679 169.141C109.398 169.613 110.121 170.189 110.785 170.738C111.012 170.927 111.231 171.11 111.44 171.286C111.853 171.633 112.23 171.949 112.567 172.211C114.12 173.42 114.263 174.981 113.676 176.261C113.11 177.498 111.839 178.522 110.489 178.716C109.827 178.812 109.128 178.621 108.478 178.332C107.817 178.038 107.138 177.61 106.491 177.148C105.661 176.555 104.821 175.855 104.126 175.275C103.759 174.969 103.432 174.697 103.169 174.492C100.924 172.746 99.8449 169.958 100.093 167.786C100.218 166.696 100.688 165.691 101.607 165.085C102.54 164.469 103.813 164.344 105.347 164.79C107.395 165.384 109.752 166.396 111.879 167.688C114.001 168.976 115.932 170.565 117.085 172.328C117.231 172.552 117.147 172.844 116.898 172.98C116.648 173.116 116.327 173.044 116.18 172.82C115.135 171.221 113.34 169.725 111.286 168.478Z" fill="#8F5D41" fill-opacity="0.3"/>
<path fill-rule="evenodd" clip-rule="evenodd" d="M188.945 178.01C186.727 178.94 184.656 180.183 183.132 181.395C182.091 182.223 181.799 182.997 181.87 183.631C181.943 184.278 182.411 184.937 183.24 185.506C184.906 186.649 187.757 187.229 190.245 186.503C190.634 186.389 191.09 186.272 191.584 186.145C192.456 185.921 193.447 185.666 194.406 185.345C195.143 185.098 195.819 184.823 196.347 184.516C196.886 184.203 197.211 183.891 197.337 183.596C197.671 182.823 197.459 181.67 196.754 180.81C196.081 179.991 194.975 179.461 193.491 179.895C193.029 180.03 192.503 180.163 191.949 180.304C190.88 180.575 189.707 180.872 188.687 181.258C187.919 181.549 187.316 181.864 186.956 182.205C186.616 182.527 186.54 182.817 186.662 183.143C186.714 183.283 186.791 183.369 186.887 183.43C186.992 183.498 187.147 183.554 187.372 183.581C187.832 183.636 188.455 183.557 189.181 183.382C189.896 183.21 190.66 182.96 191.388 182.709C191.56 182.65 191.73 182.591 191.898 182.532C192.43 182.347 192.932 182.172 193.344 182.051C193.609 181.974 193.902 182.121 193.999 182.379C194.096 182.638 193.96 182.91 193.694 182.988C193.309 183.1 192.842 183.263 192.318 183.446C192.146 183.506 191.967 183.568 191.784 183.631C191.052 183.883 190.249 184.148 189.484 184.331C188.729 184.513 187.958 184.63 187.304 184.551C186.971 184.511 186.639 184.417 186.351 184.231C186.053 184.039 185.831 183.767 185.702 183.423C185.409 182.638 185.696 181.983 186.215 181.491C186.714 181.018 187.464 180.648 188.263 180.346C189.331 179.942 190.624 179.613 191.725 179.333C192.257 179.198 192.745 179.074 193.14 178.958C195.053 178.4 196.61 179.098 197.543 180.235C198.444 181.332 198.781 182.864 198.285 184.014C198.044 184.575 197.513 185.012 196.914 185.36C196.305 185.714 195.558 186.013 194.794 186.27C193.812 186.599 192.726 186.879 191.826 187.111C191.349 187.234 190.925 187.343 190.595 187.439C187.816 188.251 184.624 187.624 182.678 186.289C181.701 185.619 180.971 184.721 180.854 183.678C180.736 182.622 181.264 181.573 182.452 180.628C184.046 179.361 186.193 178.074 188.49 177.11C190.781 176.15 193.261 175.495 195.513 175.532C195.795 175.536 196.034 175.759 196.045 176.029C196.057 176.299 195.838 176.514 195.557 176.509C193.502 176.476 191.169 177.077 188.945 178.01Z" fill="#6A4632" fill-opacity="0.3"/>
<path fill-rule="evenodd" clip-rule="evenodd" d="M204.667 163.575C202.718 164.926 200.986 166.553 199.781 168.04C198.96 169.052 198.852 169.868 199.071 170.478C199.295 171.103 199.911 171.655 200.853 172.045C202.747 172.828 205.663 172.824 207.917 171.62C208.272 171.431 208.69 171.225 209.143 171.002C209.942 170.61 210.849 170.164 211.71 169.658C212.372 169.27 212.966 168.868 213.41 168.463C213.862 168.051 214.105 167.683 214.16 167.37C214.307 166.546 213.83 165.455 212.936 164.753C212.083 164.083 210.882 163.793 209.542 164.508C209.145 164.72 208.665 164.954 208.161 165.201C207.915 165.321 207.662 165.444 207.41 165.569C206.631 165.956 205.841 166.368 205.169 166.799C204.488 167.235 203.974 167.662 203.703 168.066C203.449 168.444 203.438 168.745 203.638 169.048C203.724 169.177 203.822 169.248 203.932 169.289C204.05 169.335 204.214 169.358 204.438 169.339C204.897 169.302 205.485 169.101 206.153 168.786C206.81 168.475 207.497 168.078 208.15 167.688C208.304 167.596 208.456 167.504 208.606 167.413C209.083 167.126 209.533 166.854 209.908 166.654C210.151 166.524 210.472 166.605 210.625 166.835C210.778 167.065 210.704 167.357 210.46 167.487C210.111 167.674 209.693 167.926 209.224 168.209C209.069 168.302 208.91 168.399 208.745 168.497C208.089 168.89 207.366 169.309 206.66 169.641C205.965 169.97 205.237 170.239 204.577 170.293C204.241 170.321 203.894 170.295 203.57 170.171C203.236 170.044 202.959 169.825 202.756 169.519C202.292 168.819 202.416 168.125 202.811 167.536C203.189 166.973 203.838 166.461 204.549 166.005C205.268 165.544 206.099 165.112 206.884 164.722C207.153 164.589 207.414 164.461 207.664 164.339C208.157 164.098 208.608 163.878 208.989 163.675C210.736 162.742 212.421 163.118 213.591 164.037C214.72 164.925 215.404 166.347 215.188 167.566C215.082 168.163 214.665 168.697 214.16 169.158C213.645 169.627 212.985 170.069 212.298 170.472C211.415 170.99 210.419 171.481 209.593 171.888C209.156 172.103 208.768 172.294 208.469 172.454C205.938 173.805 202.672 173.829 200.462 172.915C199.354 172.456 198.438 171.728 198.084 170.74C197.724 169.738 197.993 168.609 198.936 167.446C200.199 165.888 201.997 164.201 204.017 162.801C206.032 161.404 208.303 160.268 210.515 159.852C210.793 159.8 211.076 159.968 211.146 160.227C211.215 160.486 211.046 160.738 210.767 160.791C208.756 161.168 206.62 162.221 204.667 163.575Z" fill="#89592D" fill-opacity="0.3"/>
<path fill-rule="evenodd" clip-rule="evenodd" d="M222.853 148.209C221.259 149.884 219.941 151.789 219.106 153.459C218.541 154.591 218.62 155.408 218.984 155.972C219.357 156.551 220.102 156.978 221.119 157.185C223.164 157.6 226.016 157.054 227.937 155.473C228.243 155.221 228.606 154.943 228.999 154.641C229.69 154.112 230.473 153.512 231.2 152.86C231.758 152.36 232.246 151.86 232.585 151.386C232.93 150.903 233.081 150.503 233.062 150.189C233.013 149.352 232.283 148.367 231.232 147.843C230.225 147.34 228.985 147.289 227.852 148.222C227.512 148.502 227.095 148.82 226.658 149.153C226.444 149.316 226.225 149.483 226.008 149.651C225.334 150.172 224.656 150.718 224.099 151.261C223.534 151.811 223.132 152.319 222.962 152.758C222.804 153.167 222.857 153.47 223.137 153.74C223.257 153.856 223.376 153.909 223.496 153.93C223.624 153.952 223.789 153.944 224.001 153.886C224.438 153.765 224.964 153.463 225.545 153.034C226.116 152.611 226.697 152.098 227.246 151.596C227.375 151.479 227.503 151.361 227.628 151.245C228.029 150.877 228.408 150.528 228.73 150.263C228.943 150.087 229.277 150.1 229.476 150.292C229.675 150.484 229.663 150.781 229.45 150.957C229.152 151.203 228.802 151.525 228.407 151.888C228.278 152.007 228.143 152.13 228.004 152.257C227.452 152.761 226.839 153.304 226.223 153.76C225.616 154.209 224.961 154.609 224.321 154.785C223.995 154.875 223.647 154.914 223.301 154.853C222.947 154.791 222.63 154.631 222.365 154.375C221.759 153.791 221.711 153.099 221.964 152.445C222.205 151.821 222.725 151.198 223.318 150.622C223.917 150.038 224.633 149.463 225.312 148.937C225.545 148.757 225.772 148.584 225.989 148.419C226.416 148.093 226.807 147.796 227.132 147.528C228.644 146.283 230.391 146.349 231.741 147.022C233.047 147.674 234.044 148.925 234.117 150.148C234.152 150.749 233.867 151.351 233.476 151.897C233.079 152.451 232.533 153.006 231.952 153.527C231.206 154.195 230.34 154.86 229.625 155.41C229.247 155.7 228.911 155.958 228.657 156.167C226.479 157.96 223.272 158.585 220.894 158.102C219.699 157.86 218.641 157.322 218.07 156.435C217.489 155.534 217.484 154.386 218.141 153.07C219.017 151.316 220.389 149.337 222.046 147.597C223.698 145.86 225.665 144.329 227.744 143.514C228.01 143.41 228.323 143.518 228.442 143.756C228.561 143.994 228.443 144.272 228.177 144.376C226.297 145.113 224.451 146.53 222.853 148.209Z" fill="#795A49" fill-opacity="0.3"/>
<path fill-rule="evenodd" clip-rule="evenodd" d="M123.964 143.434L124.776 144.019L111.845 159.434L111.033 158.849L123.964 143.434Z" fill="#624332" fill-opacity="0.3"/>
<path fill-rule="evenodd" clip-rule="evenodd" d="M134.042 144.702L134.871 145.261L129.455 152.165L128.626 151.606L134.042 144.702Z" fill="#624332" fill-opacity="0.3"/>
<path fill-rule="evenodd" clip-rule="evenodd" d="M137.499 150.346L138.322 150.914L124.714 167.858L123.89 167.29L137.499 150.346Z" fill="#624332" fill-opacity="0.3"/>
<path fill-rule="evenodd" clip-rule="evenodd" d="M168.509 148.279L169.457 147.959L177.26 167.807L176.312 168.127L168.509 148.279Z" fill="#774E37" fill-opacity="0.3"/>
<path fill-rule="evenodd" clip-rule="evenodd" d="M190.21 145.852L191.084 145.366L199.208 157.918L198.334 158.404L190.21 145.852Z" fill="#8E6045" fill-opacity="0.3"/>
<path fill-rule="evenodd" clip-rule="evenodd" d="M203.077 153.391L203.942 152.89L207.327 157.91L206.462 158.412L203.077 153.391Z" fill="#8E6045" fill-opacity="0.3"/>
<path fill-rule="evenodd" clip-rule="evenodd" d="M187.162 154.556L183.777 149.303L184.654 148.819L188.036 154.068L189.725 156.574L188.86 157.075L187.162 154.556ZM195.581 163.301L193.888 160.791L194.754 160.289L196.446 162.8L195.581 163.301Z" fill="#8E6045" fill-opacity="0.3"/>
<path fill-rule="evenodd" clip-rule="evenodd" d="M184.794 140.832L185.668 140.345L193.792 152.897L192.918 153.383L184.794 140.832Z" fill="#8E6045" fill-opacity="0.3"/>
<path fill-rule="evenodd" clip-rule="evenodd" d="M182.068 153.975L182.978 153.56L193.046 172.511L192.137 172.926L182.068 153.975Z" fill="#774E37" fill-opacity="0.3"/>
<path fill-rule="evenodd" clip-rule="evenodd" d="M197.803 125.933L198.385 125.12L217.37 136.804L216.788 137.617L197.803 125.933Z" fill="#947360" fill-opacity="0.3"/>
<path fill-rule="evenodd" clip-rule="evenodd" d="M203.235 131.592L203.784 130.756L219.354 139.543L218.806 140.379L203.235 131.592Z" fill="#947360" fill-opacity="0.3"/>
<path fill-rule="evenodd" clip-rule="evenodd" d="M205.261 143.513L205.82 142.684L216.652 148.96L216.093 149.789L205.261 143.513Z" fill="#947360" fill-opacity="0.3"/>
<path fill-rule="evenodd" clip-rule="evenodd" d="M191.044 138.493L191.603 137.664L202.435 143.94L201.876 144.769L191.044 138.493Z" fill="#947360" fill-opacity="0.3"/>
<path fill-rule="evenodd" clip-rule="evenodd" d="M191.721 129.706L192.28 128.877L203.112 135.153L202.553 135.982L191.721 129.706Z" fill="#947360" fill-opacity="0.3"/>
<path fill-rule="evenodd" clip-rule="evenodd" d="M178.511 165.022L179.458 164.701L183.826 175.775L182.879 176.096L178.511 165.022Z" fill="#774E37" fill-opacity="0.3"/>
<path fill-rule="evenodd" clip-rule="evenodd" d="M180.013 162.07L180.971 161.782L183.308 168.463L182.35 168.751L180.013 162.07Z" fill="#774E37" fill-opacity="0.3"/>
<path fill-rule="evenodd" clip-rule="evenodd" d="M120.58 144.689L121.391 145.274L108.46 160.689L107.649 160.104L120.58 144.689Z" fill="#624332" fill-opacity="0.3"/>
<path fill-rule="evenodd" clip-rule="evenodd" d="M89.0217 162.631C87.2547 161.12 85.2107 159.841 83.3949 159.003C82.1716 158.438 81.2461 158.456 80.5757 158.75C79.887 159.051 79.3512 159.695 79.0474 160.586C78.4363 162.378 78.8516 164.932 80.4841 166.719C80.7295 166.987 81.0159 167.325 81.3244 167.688C81.4488 167.834 81.5768 167.985 81.7071 168.137C82.1672 168.674 82.6686 169.244 83.1884 169.765C83.7104 170.288 84.2363 170.749 84.7421 171.075C85.2558 171.407 85.6917 171.564 86.0454 171.567C86.9956 171.572 88.1633 170.979 88.832 170.07C89.4755 169.196 89.6082 168.104 88.6535 167.06C88.3621 166.741 88.034 166.352 87.6899 165.944C87.5221 165.745 87.3505 165.541 87.1774 165.339C86.6398 164.711 86.0742 164.079 85.5052 163.554C84.9284 163.022 84.3894 162.638 83.9129 162.464C83.4733 162.302 83.1216 162.325 82.785 162.567C82.6402 162.671 82.5696 162.778 82.5367 162.886C82.502 163 82.5001 163.146 82.5499 163.334C82.653 163.724 82.9524 164.205 83.3932 164.743C83.8269 165.273 84.3615 165.818 84.8858 166.334C85.0085 166.455 85.1315 166.575 85.2525 166.693C85.6385 167.071 86.0049 167.428 86.2806 167.73C86.4669 167.934 86.4361 168.23 86.212 168.391C85.9878 168.552 85.6551 168.518 85.4688 168.314C85.2143 168.036 84.8784 167.707 84.4986 167.336C84.3737 167.214 84.2441 167.087 84.111 166.956C83.5837 166.437 83.0158 165.861 82.5458 165.286C82.0828 164.72 81.6769 164.112 81.5229 163.529C81.4442 163.232 81.4257 162.921 81.5177 162.619C81.6115 162.311 81.8109 162.044 82.1105 161.829C82.7962 161.336 83.5689 161.328 84.2941 161.594C84.9823 161.847 85.6485 162.348 86.2557 162.908C86.8709 163.476 87.4681 164.146 88.0107 164.779C88.1969 164.997 88.3753 165.208 88.5461 165.411C88.8814 165.809 89.1872 166.171 89.4653 166.476C90.7703 167.904 90.5618 169.454 89.7186 170.6C88.9006 171.711 87.4361 172.516 86.0638 172.508C85.385 172.504 84.7261 172.214 84.1364 171.833C83.5387 171.447 82.9525 170.928 82.4071 170.381C81.8595 169.832 81.3383 169.239 80.8741 168.697C80.7349 168.535 80.6017 168.378 80.4747 168.228C80.1723 167.872 79.9047 167.557 79.6723 167.303C77.8017 165.256 77.3288 162.369 78.0369 160.292C78.3927 159.249 79.0684 158.351 80.0921 157.903C81.1341 157.446 82.4219 157.505 83.862 158.169C85.7722 159.05 87.9014 160.385 89.7425 161.959C91.579 163.529 93.1641 165.367 93.9364 167.264C94.0366 167.51 93.896 167.778 93.6223 167.861C93.3486 167.944 93.0454 167.813 92.9452 167.566C92.2514 165.862 90.7934 164.146 89.0217 162.631Z" fill="#7E563F" fill-opacity="0.3"/>
<path fill-rule="evenodd" clip-rule="evenodd" d="M104.585 139.581L105.236 140.34L88.7469 152.491L88.0959 151.732L104.585 139.581Z" fill="#8F654E" fill-opacity="0.3"/>
<path fill-rule="evenodd" clip-rule="evenodd" d="M116.771 136.443L117.422 137.202L100.932 149.354L100.281 148.595L116.771 136.443Z" fill="#8F654E" fill-opacity="0.3"/>
<path fill-rule="evenodd" clip-rule="evenodd" d="M100.949 155.279L101.619 156.022L94.8492 161.27L94.1794 160.527L100.949 155.279Z" fill="#8F654E" fill-opacity="0.3"/>
<g filter="url(#filter0_d_1549_2119)">
<path d="M124.759 36.6334C138.687 48.0027 124.927 140.597 94.8611 79.7802C101.203 121.374 107.991 136.486 126.543 147.031C161.909 158.791 176.697 153.074 199.171 130.069C214.014 106.843 211.051 89.3107 180.6 47.9943C172.271 37.4205 181.033 75.092 172.305 82.917C173.57 53.7854 110.832 25.2642 124.759 36.6334Z" fill="#CAB0B0"/>
</g>
<path d="M144.927 73.6438C143.241 69.276 135.452 132.783 118.793 106.204C118.328 132.451 124.088 133.923 134.417 142.024C154.755 148.149 160.559 148.662 180.977 137.742C194.268 124.69 200.18 117.746 185.752 89.6117C181.729 82.3657 178.374 93.1026 172.591 102.106C176.434 84.2105 146.613 78.0116 144.927 73.6438Z" fill="#DDD8D3"/>
<path d="M185.459 118.314C185.774 119.826 183.143 121.633 179.584 122.351C176.024 123.068 172.884 122.423 172.57 120.911C172.255 119.399 174.885 117.591 178.445 116.874C182.004 116.157 185.144 116.801 185.459 118.314Z" fill="#E1C4BB"/>
<path d="M139.21 125.371C139.244 126.916 136.33 128.216 132.699 128.275C129.069 128.334 126.098 127.13 126.063 125.585C126.028 124.041 128.943 122.741 132.573 122.682C136.204 122.623 139.175 123.827 139.21 125.371Z" fill="#E1C4BB"/>
<path d="M79.884 197.422H81.046V210.106H79.884V197.422ZM74.368 198.402C76.244 198.402 77.588 200.124 77.588 202.812C77.588 205.514 76.244 207.236 74.368 207.236C72.506 207.236 71.162 205.514 71.162 202.812C71.162 200.124 72.506 198.402 74.368 198.402ZM74.368 199.452C73.136 199.452 72.268 200.768 72.268 202.812C72.268 204.87 73.136 206.214 74.368 206.214C75.614 206.214 76.468 204.87 76.468 202.812C76.468 200.768 75.614 199.452 74.368 199.452ZM84.2929 198.668H90.1169V206.914H84.2929V198.668ZM88.9829 199.606H85.4269V205.976H88.9829V199.606ZM92.7629 197.422H93.9249V210.106H92.7629V197.422ZM99.8038 199.242H100.742V201.3C100.742 203.974 99.1318 206.662 97.1158 207.656L96.4438 206.732C98.2778 205.864 99.8038 203.484 99.8038 201.3V199.242ZM100.028 199.242H100.966V201.3C100.966 203.442 102.492 205.626 104.354 206.424L103.696 207.348C101.652 206.396 100.028 203.932 100.028 201.3V199.242ZM96.8638 198.724H103.934V199.704H96.8638V198.724ZM105.642 197.436H106.804V210.092H105.642V197.436ZM109.323 203.316H120.803V204.198H109.323V203.316ZM110.681 205.22H119.361V207.922H111.871V209.406H110.723V207.124H118.227V206.046H110.681V205.22ZM110.723 209.098H119.767V209.938H110.723V209.098ZM110.779 197.8H119.319V200.432H111.955V201.804H110.807V199.648H118.185V198.626H110.779V197.8ZM110.807 201.524H119.557V202.364H110.807V201.524ZM131.277 203.512H132.425V205.444H131.277V203.512ZM127.665 197.632H128.813V198.808H134.931V197.632H136.093V201.804H127.665V197.632ZM128.813 199.704V200.908H134.931V199.704H128.813ZM126.139 202.84H137.577V203.778H126.139V202.84ZM127.525 205.01H136.121V207.824H128.701V209.392H127.553V206.984H134.973V205.892H127.525V205.01ZM127.553 209.056H136.499V209.952H127.553V209.056ZM148.272 197.422H149.434V210.106H148.272V197.422ZM145.864 202.294H148.552V203.246H145.864V202.294ZM139.494 206.102H140.46C142.7 206.102 144.282 206.032 146.144 205.696L146.256 206.662C144.352 206.998 142.742 207.082 140.46 207.082H139.494V206.102ZM139.466 198.612H145.122V203.05H140.642V206.396H139.494V202.098H143.974V199.564H139.466V198.612ZM157.035 201.622H158.183V203.33H157.035V201.622ZM157.623 197.59C160.409 197.59 162.075 198.36 162.075 199.774C162.075 201.188 160.409 201.972 157.623 201.972C154.823 201.972 153.171 201.188 153.171 199.774C153.171 198.36 154.823 197.59 157.623 197.59ZM157.623 198.472C155.551 198.472 154.361 198.948 154.361 199.774C154.361 200.614 155.551 201.09 157.623 201.09C159.681 201.09 160.871 200.614 160.871 199.774C160.871 198.948 159.681 198.472 157.623 198.472ZM151.897 202.91H163.335V203.862H151.897V202.91ZM153.283 204.898H161.879V207.768H154.459V209.308H153.311V206.914H160.731V205.808H153.283V204.898ZM153.311 209.042H162.257V209.952H153.311V209.042ZM173.837 197.884H174.859V198.584C174.859 201.006 172.395 202.742 169.763 203.19L169.301 202.252C171.611 201.902 173.837 200.39 173.837 198.584V197.884ZM174.047 197.884H175.055V198.584C175.055 200.348 177.309 201.902 179.591 202.252L179.129 203.19C176.525 202.742 174.047 200.978 174.047 198.584V197.884ZM173.837 205.276H174.985V210.092H173.837V205.276ZM168.727 204.562H180.165V205.528H168.727V204.562ZM186.986 204.856H188.078V206.438H190.29V204.856H191.368V209.924H186.986V204.856ZM188.078 207.306V209.014H190.29V207.306H188.078ZM193.818 204.786H194.714V205.836C194.714 207.558 193.846 209.294 192.096 210.036L191.508 209.154C193.034 208.51 193.818 207.124 193.818 205.836V204.786ZM194.056 204.786H194.952V205.836C194.952 207.194 195.736 208.566 197.262 209.154L196.674 210.036C194.91 209.308 194.056 207.628 194.056 205.836V204.786ZM191.9 200.404H195.302V201.37H191.9V200.404ZM188.988 197.996C190.878 197.996 192.25 199.172 192.25 200.908C192.25 202.63 190.878 203.82 188.988 203.82C187.098 203.82 185.726 202.63 185.726 200.908C185.726 199.172 187.098 197.996 188.988 197.996ZM188.988 198.962C187.742 198.962 186.846 199.76 186.846 200.908C186.846 202.042 187.742 202.854 188.988 202.854C190.234 202.854 191.13 202.042 191.13 200.908C191.13 199.76 190.234 198.962 188.988 198.962ZM194.784 197.436H195.946V204.142H194.784V197.436ZM199.865 205.024H201.013V206.494H207.201V205.024H208.363V209.924H199.865V205.024ZM201.013 207.39V208.986H207.201V207.39H201.013ZM198.409 203.204H209.847V204.142H198.409V203.204ZM203.547 197.576H204.541V198.136C204.541 200.334 202.091 201.916 199.487 202.308L199.067 201.398C201.349 201.09 203.547 199.732 203.547 198.136V197.576ZM203.729 197.576H204.723V198.136C204.723 199.704 206.949 201.09 209.203 201.398L208.769 202.308C206.193 201.916 203.729 200.306 203.729 198.136V197.576ZM220.5 197.436H221.662V210.092H220.5V197.436ZM212.1 198.668H213.248V206.508H212.1V198.668ZM212.1 205.822H213.136C215.054 205.822 217.056 205.682 219.198 205.234L219.338 206.228C217.14 206.676 215.138 206.83 213.136 206.83H212.1V205.822ZM232.734 197.422H233.91V210.106H232.734V197.422ZM233.63 202.42H235.982V203.4H233.63V202.42ZM224.712 205.976H225.706C228.044 205.976 229.682 205.892 231.572 205.542L231.698 206.522C229.752 206.886 228.086 206.956 225.706 206.956H224.712V205.976ZM224.712 198.654H230.592V199.606H225.86V206.41H224.712V198.654Z" fill="#767676"/>
<path d="M231.465 52.4863C232.509 51.3544 233.597 50.485 234.729 49.878C235.86 49.271 237.133 48.8895 238.547 48.7335C239.995 48.6091 241.681 48.6733 243.607 48.926C245.332 49.1207 246.773 49.2113 247.928 49.1978C249.117 49.216 250.118 49.0601 250.931 48.7301C251.777 48.4318 252.533 47.9226 253.198 47.2023C254.21 46.1047 254.558 44.9018 254.241 43.5935C253.99 42.2826 253.144 40.9627 251.704 39.6336C250.263 38.3046 248.634 37.2143 246.817 36.3628C244.999 35.5113 243.005 34.7825 240.833 34.1764L243.186 26.1557C245.721 26.7801 248.235 27.7027 250.728 28.9233C253.221 30.1439 255.633 31.8301 257.966 33.9819C261.533 37.2728 263.503 40.6776 263.876 44.1963C264.283 47.7466 263.268 50.8423 260.832 53.4833C259.534 54.8896 258.188 55.9015 256.793 56.5192C255.397 57.1368 253.843 57.4801 252.128 57.5492C250.445 57.5839 248.476 57.4816 246.221 57.2421C244.562 57.0448 243.22 56.9502 242.197 56.9584C241.173 56.9665 240.337 57.1158 239.688 57.4061C239.074 57.7281 238.434 58.2492 237.77 58.9695L236.393 60.4615L229.756 54.3385L231.465 52.4863ZM221.006 62.171C222.462 60.5933 223.903 59.8912 225.331 60.0649C226.789 60.2043 228.136 60.8436 229.371 61.9828C230.571 63.0903 231.3 64.3655 231.556 65.8083C231.844 67.2168 231.26 68.7099 229.804 70.2877C228.412 71.7968 226.971 72.4989 225.48 72.3938C224.022 72.2544 222.692 71.6309 221.491 70.5234C220.257 69.3842 219.511 68.0932 219.255 66.6504C219.03 65.1733 219.614 63.6802 221.006 62.171Z" fill="white" fill-opacity="0.27"/>
<path d="M238.547 48.7335L238.431 47.3885L238.415 47.3899L238.398 47.3916L238.547 48.7335ZM243.607 48.926L243.431 50.2645L243.444 50.2661L243.456 50.2675L243.607 48.926ZM247.928 49.1978L247.948 47.848L247.93 47.8477L247.912 47.8479L247.928 49.1978ZM250.931 48.7301L250.482 47.4569L250.452 47.4674L250.423 47.4794L250.931 48.7301ZM254.241 43.5935L252.915 43.8473L252.921 43.8795L252.929 43.9113L254.241 43.5935ZM246.817 36.3628L247.389 35.1403L247.389 35.1403L246.817 36.3628ZM240.833 34.1764L239.538 33.7965L239.153 35.1089L240.47 35.4767L240.833 34.1764ZM243.186 26.1557L243.508 24.8449L242.254 24.5358L241.89 25.7758L243.186 26.1557ZM250.728 28.9233L250.134 30.1358L250.134 30.1358L250.728 28.9233ZM263.876 44.1963L262.533 44.3386L262.534 44.3501L263.876 44.1963ZM256.793 56.5192L257.339 57.7536L257.339 57.7536L256.793 56.5192ZM252.128 57.5492L252.156 58.8989L252.169 58.8986L252.182 58.8981L252.128 57.5492ZM246.221 57.2421L246.061 58.5827L246.07 58.5837L246.078 58.5846L246.221 57.2421ZM242.197 56.9584L242.208 58.3083L242.208 58.3083L242.197 56.9584ZM239.688 57.4061L239.137 56.1739L239.099 56.1909L239.062 56.2103L239.688 57.4061ZM236.393 60.4615L235.478 61.4538L236.47 62.3692L237.386 61.377L236.393 60.4615ZM229.756 54.3385L228.764 53.4231L227.849 54.4153L228.841 55.3307L229.756 54.3385ZM225.331 60.0649L225.167 61.405L225.185 61.4071L225.202 61.4088L225.331 60.0649ZM231.556 65.8083L230.227 66.0444L230.23 66.0615L230.233 66.0786L231.556 65.8083ZM225.48 72.3938L225.352 73.7376L225.369 73.7392L225.385 73.7404L225.48 72.3938ZM219.255 66.6504L217.92 66.8534L217.923 66.87L217.926 66.8865L219.255 66.6504ZM232.457 53.4017C233.419 52.3589 234.391 51.591 235.367 51.0676L234.09 48.6884C232.803 49.379 231.599 50.3499 230.473 51.5709L232.457 53.4017ZM235.367 51.0676C236.331 50.5506 237.434 50.2145 238.695 50.0754L238.398 47.3916C236.832 47.5646 235.39 47.9914 234.09 48.6884L235.367 51.0676ZM238.662 50.0785C239.987 49.9648 241.572 50.0205 243.431 50.2645L243.783 47.5875C241.791 47.3261 240.002 47.2535 238.431 47.3885L238.662 50.0785ZM243.456 50.2675C245.212 50.4657 246.712 50.5621 247.944 50.5477L247.912 47.8479C246.833 47.8605 245.453 47.7758 243.759 47.5845L243.456 50.2675ZM247.907 50.5477C249.217 50.5677 250.41 50.3986 251.439 49.9809L250.423 47.4794C249.827 47.7215 249.018 47.8643 247.948 47.848L247.907 50.5477ZM251.379 50.0034C252.452 49.6254 253.39 48.9846 254.19 48.1177L252.205 46.2869C251.676 46.8605 251.103 47.2383 250.482 47.4569L251.379 50.0034ZM254.19 48.1177C255.469 46.731 255.989 45.0763 255.553 43.2757L252.929 43.9113C253.127 44.7273 252.951 45.4783 252.205 46.2869L254.19 48.1177ZM255.567 43.3397C255.242 41.6399 254.177 40.0785 252.619 38.6414L250.788 40.6259C252.112 41.8468 252.739 42.9253 252.915 43.8473L255.567 43.3397ZM252.619 38.6414C251.074 37.2162 249.329 36.0491 247.389 35.1403L246.244 37.5853C247.939 38.3795 249.452 39.393 250.788 40.6259L252.619 38.6414ZM247.389 35.1403C245.496 34.2535 243.431 33.4999 241.196 32.8761L240.47 35.4767C242.578 36.0651 244.501 36.7691 246.244 37.5853L247.389 35.1403ZM242.129 34.5563L244.481 26.5356L241.89 25.7758L239.538 33.7965L242.129 34.5563ZM242.863 27.4665C245.298 28.0665 247.722 28.9548 250.134 30.1358L251.321 27.7108C248.747 26.4505 246.143 25.4938 243.508 24.8449L242.863 27.4665ZM250.134 30.1358C252.494 31.2914 254.8 32.8985 257.05 34.9741L258.881 32.9896C256.466 30.7617 253.947 28.9964 251.321 27.7108L250.134 30.1358ZM257.05 34.9741C260.466 38.1257 262.206 41.2494 262.533 44.3385L265.218 44.054C264.8 40.1058 262.599 36.4199 258.881 32.9896L257.05 34.9741ZM262.534 44.3501C262.897 47.5077 262.011 50.2137 259.839 52.5679L261.824 54.3987C264.525 51.4708 265.669 47.9855 265.217 44.0425L262.534 44.3501ZM259.839 52.5679C258.636 53.8718 257.436 54.7582 256.246 55.2847L257.339 57.7536C258.94 57.0449 260.432 55.9074 261.824 54.3987L259.839 52.5679ZM256.246 55.2847C255.025 55.8255 253.64 56.1372 252.074 56.2002L252.182 58.8981C254.046 58.823 255.77 58.4481 257.339 57.7536L256.246 55.2847ZM252.1 56.1994C250.49 56.2327 248.58 56.135 246.363 55.8997L246.078 58.5846C248.372 58.8281 250.401 58.9351 252.156 58.8989L252.1 56.1994ZM246.38 55.9016C244.695 55.7011 243.29 55.5996 242.186 55.6084L242.208 58.3083C243.15 58.3008 244.428 58.3884 246.061 58.5827L246.38 55.9016ZM242.186 55.6084C241.052 55.6175 240.014 55.7816 239.137 56.1739L240.24 58.6384C240.661 58.45 241.295 58.3156 242.208 58.3083L242.186 55.6084ZM239.062 56.2103C238.266 56.6271 237.507 57.2632 236.778 58.0541L238.762 59.8849C239.361 59.2352 239.881 58.8291 240.315 58.6019L239.062 56.2103ZM236.778 58.0541L235.401 59.5461L237.386 61.377L238.762 59.8849L236.778 58.0541ZM237.309 59.4693L230.672 53.3462L228.841 55.3307L235.478 61.4538L237.309 59.4693ZM230.749 55.2539L232.457 53.4017L230.473 51.5709L228.764 53.4231L230.749 55.2539ZM221.999 63.0864C223.312 61.6631 224.354 61.306 225.167 61.405L225.494 58.7248C223.453 58.4764 221.612 59.5234 220.014 61.2556L221.999 63.0864ZM225.202 61.4088C226.325 61.5161 227.404 62.0053 228.455 62.975L230.286 60.9906C228.868 59.6819 227.253 58.8925 225.459 58.7211L225.202 61.4088ZM228.455 62.975C229.465 63.9067 230.028 64.9253 230.227 66.0444L232.885 65.5722C232.571 63.8057 231.677 62.274 230.286 60.9906L228.455 62.975ZM230.233 66.0786C230.397 66.8817 230.125 67.949 228.812 69.3722L230.797 71.2031C232.395 69.4708 233.29 67.5518 232.878 65.5379L230.233 66.0786ZM228.812 69.3722C227.587 70.6996 226.518 71.1136 225.575 71.0471L225.385 73.7404C227.423 73.8842 229.236 72.894 230.797 71.2031L228.812 69.3722ZM225.609 71.0499C224.477 70.9418 223.417 70.4627 222.407 69.5311L220.576 71.5156C221.967 72.799 223.566 73.567 225.352 73.7376L225.609 71.0499ZM222.407 69.5311C221.356 68.5614 220.781 67.5251 220.584 66.4143L217.926 66.8865C218.241 68.6613 219.158 70.207 220.576 71.5156L222.407 69.5311ZM220.59 66.4475C220.447 65.5133 220.774 64.4138 221.999 63.0864L220.014 61.2556C218.454 62.9466 217.613 64.8334 217.92 66.8534L220.59 66.4475Z" fill="#A8A7A7" fill-opacity="0.7"/>
<path d="M58.4487 60.8685C57.938 59.4156 57.6797 58.0472 57.6735 56.7633C57.6674 55.4793 57.9267 54.1763 58.4513 52.8542C59.0199 51.5166 59.867 50.0564 60.9925 48.4737C61.9728 47.0408 62.7277 45.8109 63.2571 44.7839C63.8305 43.7415 64.1618 42.7841 64.2509 41.9119C64.3841 41.0242 64.2882 40.118 63.9632 39.1935C63.468 37.7846 62.5683 36.9137 61.264 36.5807C59.9884 36.1882 58.426 36.3169 56.5769 36.9668C54.7278 37.6168 53.0013 38.5451 51.3974 39.752C49.7935 40.9588 48.2152 42.3792 46.6625 44.0132L40.6787 38.1772C42.4182 36.2302 44.4111 34.4415 46.6575 32.811C48.9039 31.1805 51.524 29.8391 54.5178 28.7868C59.0966 27.1774 63.0275 27.0323 66.3108 28.3515C69.638 29.6553 71.8975 32.0022 73.089 35.3922C73.7235 37.1973 73.9867 38.8608 73.8786 40.3828C73.7705 41.9047 73.3453 43.4392 72.6029 44.9862C71.8451 46.4892 70.8321 48.1809 69.5639 50.0612C68.6121 51.4345 67.9 52.5751 67.4277 53.4831C66.9554 54.3911 66.6955 55.1997 66.648 55.909C66.6446 56.6027 66.8053 57.4118 67.1303 58.3364L67.8034 60.2515L59.2844 63.2459L58.4487 60.8685ZM62.1042 74.6459C61.3924 72.6207 61.4475 71.0184 62.2696 69.8391C63.0762 68.6157 64.272 67.7255 65.857 67.1684C67.3979 66.6267 68.8657 66.5807 70.2603 67.0304C71.6395 67.436 72.6851 68.6514 73.3969 70.6766C74.0778 72.6137 74.0227 74.216 73.2315 75.4834C72.4249 76.7068 71.2511 77.5893 69.7102 78.1309C68.1253 78.688 66.6355 78.7417 65.2408 78.2921C63.8306 77.7984 62.7851 76.583 62.1042 74.6459Z" fill="white" fill-opacity="0.27"/>
<path d="M58.4513 52.8542L57.2089 52.326L57.2025 52.3411L57.1965 52.3563L58.4513 52.8542ZM60.9925 48.4737L62.0927 49.256L62.0997 49.2461L62.1066 49.236L60.9925 48.4737ZM63.2571 44.7839L62.0742 44.1333L62.0654 44.1492L62.0571 44.1654L63.2571 44.7839ZM64.2509 41.9119L62.9158 41.7116L62.9111 41.743L62.9079 41.7746L64.2509 41.9119ZM61.264 36.5807L60.867 37.871L60.8983 37.8806L60.9301 37.8887L61.264 36.5807ZM51.3974 39.752L50.5857 38.6732L50.5857 38.6732L51.3974 39.752ZM46.6625 44.0132L45.7199 44.9796L46.699 45.9345L47.6412 44.9431L46.6625 44.0132ZM40.6787 38.1772L39.672 37.2778L38.811 38.2414L39.7361 39.1437L40.6787 38.1772ZM46.6575 32.811L47.4505 33.9035L47.4505 33.9035L46.6575 32.811ZM66.3108 28.3515L65.8074 29.6042L65.8182 29.6085L66.3108 28.3515ZM73.8786 40.3828L75.2252 40.4784L75.2252 40.4784L73.8786 40.3828ZM72.6029 44.9862L73.8084 45.594L73.8144 45.5822L73.8201 45.5703L72.6029 44.9862ZM69.5639 50.0612L70.6734 50.8302L70.6783 50.8231L70.6831 50.8161L69.5639 50.0612ZM67.4277 53.4831L68.6254 54.1061L68.6254 54.1061L67.4277 53.4831ZM66.648 55.909L65.3011 55.8187L65.2983 55.8604L65.2981 55.9022L66.648 55.909ZM67.8034 60.2515L68.2511 61.5251L69.5247 61.0775L69.077 59.8039L67.8034 60.2515ZM59.2844 63.2459L58.0108 63.6936L58.4584 64.9672L59.732 64.5195L59.2844 63.2459ZM62.2696 69.8391L63.3771 70.6111L63.387 70.5968L63.3967 70.5822L62.2696 69.8391ZM70.2603 67.0304L69.8461 68.3152L69.8627 68.3206L69.8795 68.3255L70.2603 67.0304ZM73.2315 75.4834L74.3586 76.2265L74.3678 76.2125L74.3767 76.1983L73.2315 75.4834ZM65.2408 78.2921L64.7947 79.5663L64.8106 79.5718L64.8265 79.577L65.2408 78.2921ZM59.7223 60.4208C59.2519 59.0823 59.0288 57.8639 59.0235 56.7569L56.3236 56.7697C56.3305 58.2305 56.6242 59.749 57.1751 61.3162L59.7223 60.4208ZM59.0235 56.7569C59.0183 55.6632 59.2383 54.531 59.7061 53.3521L57.1965 52.3563C56.615 53.8216 56.3165 55.2954 56.3236 56.7697L59.0235 56.7569ZM59.6937 53.3824C60.2139 52.1585 61.006 50.7841 62.0927 49.256L59.8923 47.6913C58.7279 49.3288 57.8259 50.8747 57.2089 52.326L59.6937 53.3824ZM62.1066 49.236C63.1045 47.7775 63.8927 46.4971 64.457 45.4025L62.0571 44.1654C61.5626 45.1247 60.8411 46.3042 59.8783 47.7114L62.1066 49.236ZM64.4399 45.4346C65.0713 44.2867 65.481 43.1535 65.5939 42.0491L62.9079 41.7746C62.8425 42.4148 62.5896 43.1962 62.0742 44.1333L64.4399 45.4346ZM65.586 42.1121C65.7547 40.9871 65.6279 39.8586 65.2368 38.7458L62.6896 39.6411C62.9484 40.3774 63.0134 41.0612 62.9158 41.7116L65.586 42.1121ZM65.2368 38.7458C64.6112 36.966 63.3931 35.731 61.598 35.2727L60.9301 37.8887C61.7435 38.0964 62.3248 38.6033 62.6896 39.6411L65.2368 38.7458ZM61.6611 35.2904C60.007 34.7814 58.1287 34.9904 56.1292 35.6932L57.0245 38.2404C58.7233 37.6433 59.9698 37.5949 60.867 37.871L61.6611 35.2904ZM56.1292 35.6932C54.1464 36.3902 52.2975 37.3852 50.5857 38.6732L52.2091 40.8307C53.705 39.7051 55.3092 38.8434 57.0245 38.2404L56.1292 35.6932ZM50.5857 38.6732C48.9154 39.93 47.2818 41.4016 45.6839 43.0832L47.6412 44.9431C49.1486 43.3568 50.6716 41.9875 52.2091 40.8307L50.5857 38.6732ZM47.6051 43.0467L41.6213 37.2108L39.7361 39.1437L45.7199 44.9796L47.6051 43.0467ZM41.6854 39.0767C43.3569 37.2059 45.2772 35.481 47.4505 33.9035L45.8645 31.7184C43.5451 33.402 41.4795 35.2546 39.672 37.2778L41.6854 39.0767ZM47.4505 33.9035C49.5773 32.3598 52.0777 31.0754 54.9655 30.0604L54.0702 27.5132C50.9704 28.6027 48.2306 30.0011 45.8645 31.7184L47.4505 33.9035ZM54.9655 30.0604C59.3504 28.5191 62.925 28.446 65.8074 29.6042L66.8141 27.0989C63.13 25.6186 58.8427 25.8356 54.0702 27.5132L54.9655 30.0604ZM65.8182 29.6085C68.7775 30.7681 70.7532 32.818 71.8154 35.8399L74.3626 34.9445C73.0417 31.1864 70.4986 28.5426 66.8033 27.0946L65.8182 29.6085ZM71.8154 35.8399C72.4037 37.5135 72.6241 38.9898 72.532 40.2871L75.2252 40.4784C75.3492 38.7318 75.0433 36.881 74.3626 34.9445L71.8154 35.8399ZM72.532 40.2871C72.4373 41.6198 72.0638 42.9894 71.3858 44.4022L73.8201 45.5703C74.6268 43.889 75.1037 42.1897 75.2252 40.4784L72.532 40.2871ZM71.3975 44.3785C70.6724 45.8167 69.6912 47.4581 68.4447 49.3063L70.6831 50.8161C71.973 48.9037 73.0179 47.1618 73.8084 45.594L71.3975 44.3785ZM68.4543 49.2922C67.4876 50.687 66.7398 51.8803 66.2301 52.8602L68.6254 54.1061C69.0603 53.27 69.7366 52.182 70.6734 50.8302L68.4543 49.2922ZM66.2301 52.8602C65.7067 53.8664 65.3652 54.8605 65.3011 55.8187L67.995 55.9992C68.0258 55.5389 68.2042 54.9158 68.6254 54.1061L66.2301 52.8602ZM65.2981 55.9022C65.2935 56.8001 65.4998 57.7689 65.8567 58.7841L68.4039 57.8887C68.1108 57.0548 67.9956 56.4053 67.998 55.9157L65.2981 55.9022ZM65.8567 58.7841L66.5298 60.6992L69.077 59.8039L68.4039 57.8887L65.8567 58.7841ZM67.3558 58.9779L58.8367 61.9723L59.732 64.5195L68.2511 61.5251L67.3558 58.9779ZM60.558 62.7983L59.7223 60.4208L57.1751 61.3162L58.0108 63.6936L60.558 62.7983ZM63.3778 74.1982C62.7357 72.3713 62.9083 71.2835 63.3771 70.6111L61.1621 69.067C59.9866 70.7533 60.049 72.8701 60.8306 75.0935L63.3778 74.1982ZM63.3967 70.5822C64.0177 69.6403 64.9554 68.9162 66.3046 68.442L65.4093 65.8947C63.5886 66.5347 62.1348 67.591 61.1425 69.0959L63.3967 70.5822ZM66.3046 68.442C67.6008 67.9864 68.7644 67.9665 69.8461 68.3152L70.6746 65.7455C68.967 65.195 67.1949 65.2671 65.4093 65.8947L66.3046 68.442ZM69.8795 68.3255C70.6658 68.5568 71.4812 69.2973 72.1233 71.1242L74.6705 70.2289C73.889 68.0054 72.6133 66.3152 70.6412 65.7352L69.8795 68.3255ZM72.1233 71.1242C72.7222 72.828 72.5867 73.9669 72.0863 74.7685L74.3767 76.1983C75.4587 74.465 75.4334 72.3994 74.6705 70.2289L72.1233 71.1242ZM72.1045 74.7403C71.4788 75.6891 70.5587 76.4017 69.2625 76.8573L70.1579 79.4045C71.9435 78.7768 73.371 77.7244 74.3586 76.2265L72.1045 74.7403ZM69.2625 76.8573C67.9134 77.3315 66.7287 77.3534 65.655 77.0072L64.8265 79.577C66.5422 80.1301 68.3372 80.0445 70.1579 79.4045L69.2625 76.8573ZM65.6868 77.0179C64.795 76.7057 63.9767 75.902 63.3778 74.1982L60.8306 75.0935C61.5935 77.264 62.8663 78.8912 64.7947 79.5663L65.6868 77.0179Z" fill="#A8A7A7" fill-opacity="0.7"/>
<path d="M201.535 34.9455C201.278 34.1039 201.163 33.3165 201.19 32.5833C201.217 31.8501 201.396 31.1123 201.727 30.3699C202.083 29.6198 202.601 28.8062 203.282 27.9293C203.875 27.1346 204.336 26.4503 204.662 25.8765C205.014 25.295 205.226 24.7563 205.298 24.2604C205.395 23.7567 205.362 23.2371 205.198 22.7015C204.949 21.8854 204.456 21.3668 203.719 21.1456C203 20.8912 202.105 20.9276 201.034 21.2547C199.963 21.5819 198.955 22.0709 198.011 22.7218C197.066 23.3727 196.131 24.1462 195.206 25.0422L191.928 21.5681C192.968 20.4978 194.148 19.5239 195.469 18.6463C196.791 17.7688 198.319 17.0652 200.053 16.5355C202.705 15.7255 204.953 15.736 206.796 16.5673C208.665 17.3907 209.899 18.7843 210.499 20.7481C210.818 21.7937 210.929 22.7497 210.831 23.6161C210.733 24.4825 210.454 25.3485 209.993 26.2141C209.525 27.0542 208.906 27.9959 208.138 29.0393C207.562 29.8008 207.128 30.4351 206.837 30.9423C206.545 31.4495 206.378 31.905 206.334 32.3087C206.315 32.7047 206.388 33.1705 206.552 33.7061L206.89 34.8155L201.955 36.3227L201.535 34.9455ZM203.294 42.8983C202.936 41.7252 203.006 40.8117 203.503 40.1579C203.993 39.4786 204.697 38.9987 205.615 38.7183C206.507 38.4457 207.346 38.4543 208.132 38.7442C208.91 39.0085 209.478 39.7273 209.836 40.9004C210.179 42.0226 210.109 42.9361 209.628 43.6409C209.138 44.3202 208.447 44.7961 207.554 45.0688C206.636 45.3492 205.784 45.3445 204.999 45.0546C204.205 44.7393 203.637 44.0205 203.294 42.8983Z" fill="white" fill-opacity="0.27"/>
<path d="M201.727 30.3699L200.823 29.9408L200.818 29.9517L200.813 29.9628L201.727 30.3699ZM203.282 27.9293L204.072 28.5422L204.077 28.5351L204.083 28.5278L203.282 27.9293ZM204.662 25.8765L203.807 25.3585L203.8 25.3701L203.793 25.3818L204.662 25.8765ZM205.298 24.2604L204.316 24.071L204.311 24.0941L204.308 24.1174L205.298 24.2604ZM203.719 21.1456L203.386 22.0884L203.409 22.0965L203.432 22.1034L203.719 21.1456ZM198.011 22.7218L197.443 21.8984L197.443 21.8984L198.011 22.7218ZM195.206 25.0422L194.479 25.7284L195.174 26.4653L195.902 25.7606L195.206 25.0422ZM191.928 21.5681L191.211 20.8714L190.544 21.5581L191.201 22.2543L191.928 21.5681ZM195.469 18.6463L196.023 19.4794L196.023 19.4794L195.469 18.6463ZM206.796 16.5673L206.385 17.4789L206.393 17.4824L206.796 16.5673ZM210.831 23.6161L211.825 23.7284L211.825 23.7284L210.831 23.6161ZM209.993 26.2141L210.867 26.701L210.871 26.6925L210.876 26.6838L209.993 26.2141ZM208.138 29.0393L208.935 29.6427L208.943 29.6325L208.138 29.0393ZM206.837 30.9423L207.704 31.4402L207.704 31.4402L206.837 30.9423ZM206.334 32.3087L205.34 32.2005L205.336 32.2312L205.335 32.2621L206.334 32.3087ZM206.89 34.8155L207.182 35.7719L208.139 35.4798L207.847 34.5234L206.89 34.8155ZM201.955 36.3227L200.999 36.6148L201.291 37.5712L202.247 37.2791L201.955 36.3227ZM203.503 40.1579L204.299 40.7634L204.307 40.7531L204.314 40.7426L203.503 40.1579ZM208.132 38.7442L207.786 39.6823L207.798 39.6868L207.81 39.691L208.132 38.7442ZM209.628 43.6409L210.439 44.2256L210.446 44.2155L210.453 44.2052L209.628 43.6409ZM204.999 45.0546L204.629 45.9839L204.641 45.9885L204.652 45.9928L204.999 45.0546ZM202.491 34.6534C202.26 33.8977 202.167 33.2224 202.189 32.6201L200.19 32.5465C200.159 33.4106 200.295 34.3101 200.578 35.2376L202.491 34.6534ZM202.189 32.6201C202.211 32.0278 202.356 31.4152 202.64 30.7771L200.813 29.9628C200.436 30.8094 200.223 31.6724 200.19 32.5465L202.189 32.6201ZM202.63 30.7991C202.947 30.1316 203.422 29.3799 204.072 28.5422L202.491 27.3164C201.781 28.2326 201.219 29.1079 200.823 29.9408L202.63 30.7991ZM204.083 28.5278C204.69 27.7146 205.177 26.994 205.531 26.3713L203.793 25.3818C203.494 25.9066 203.06 26.5545 202.48 27.3308L204.083 28.5278ZM205.518 26.3945C205.916 25.7367 206.191 25.0702 206.288 24.4033L204.308 24.1174C204.261 24.4423 204.113 24.8532 203.807 25.3585L205.518 26.3945ZM206.28 24.4497C206.411 23.7715 206.361 23.0864 206.155 22.4094L204.242 22.9936C204.362 23.3878 204.379 23.7419 204.316 24.071L206.28 24.4497ZM206.155 22.4094C205.82 21.3147 205.103 20.5168 204.007 20.1879L203.432 22.1034C203.809 22.2167 204.078 22.4561 204.242 22.9936L206.155 22.4094ZM204.053 20.2029C203.057 19.8507 201.926 19.9367 200.742 20.2983L201.326 22.2111C202.284 21.9185 202.943 21.9318 203.386 22.0884L204.053 20.2029ZM200.742 20.2983C199.57 20.6562 198.47 21.1907 197.443 21.8984L198.578 23.5452C199.44 22.9511 200.355 22.5076 201.326 22.2111L200.742 20.2983ZM197.443 21.8984C196.448 22.5843 195.471 23.3939 194.51 24.3238L195.902 25.7606C196.792 24.8984 197.684 24.1611 198.578 23.5452L197.443 21.8984ZM195.933 24.3559L192.656 20.8818L191.201 22.2543L194.479 25.7284L195.933 24.3559ZM192.646 22.2647C193.632 21.2488 194.757 20.3199 196.023 19.4794L194.916 17.8133C193.539 18.7279 192.303 19.7468 191.211 20.8714L192.646 22.2647ZM196.023 19.4794C197.253 18.6624 198.69 17.9973 200.345 17.4919L199.761 15.5792C197.947 16.1331 196.329 16.8752 194.916 17.8133L196.023 19.4794ZM200.345 17.4919C202.852 16.7263 204.834 16.7792 206.385 17.4788L207.207 15.6557C205.072 14.6929 202.559 14.7246 199.761 15.5792L200.345 17.4919ZM206.393 17.4824C207.994 18.1877 209.027 19.3528 209.542 21.0402L211.455 20.456C210.771 18.2157 209.336 16.5936 207.199 15.6522L206.393 17.4824ZM209.542 21.0402C209.832 21.9871 209.916 22.8032 209.837 23.5038L211.825 23.7284C211.941 22.6963 211.805 21.6003 211.455 20.456L209.542 21.0402ZM209.837 23.5038C209.755 24.2305 209.519 24.9761 209.11 25.7444L210.876 26.6838C211.388 25.7209 211.711 24.7344 211.825 23.7284L209.837 23.5038ZM209.12 25.7271C208.678 26.5203 208.084 27.4259 207.333 28.4461L208.943 29.6325C209.728 28.566 210.372 27.5881 210.867 26.701L209.12 25.7271ZM207.34 28.436C206.752 29.2129 206.291 29.8851 205.969 30.4443L207.704 31.4402C207.965 30.9851 208.371 30.3886 208.935 29.6426L207.34 28.436ZM205.969 30.4443C205.637 31.0227 205.404 31.6129 205.34 32.2005L207.328 32.417C207.352 32.197 207.454 31.8763 207.704 31.4402L205.969 30.4443ZM205.335 32.2621C205.309 32.8092 205.411 33.3946 205.595 33.9982L207.508 33.414C207.365 32.9465 207.321 32.6002 207.333 32.3553L205.335 32.2621ZM205.595 33.9982L205.934 35.1076L207.847 34.5234L207.508 33.414L205.595 33.9982ZM206.598 33.8591L201.663 35.3663L202.247 37.2791L207.182 35.7719L206.598 33.8591ZM202.912 36.0306L202.491 34.6534L200.578 35.2376L200.999 36.6148L202.912 36.0306ZM204.251 42.6062C203.938 41.582 204.079 41.0528 204.299 40.7634L202.707 39.5524C201.933 40.5705 201.934 41.8684 202.338 43.1904L204.251 42.6062ZM204.314 40.7426C204.658 40.2659 205.166 39.9011 205.907 39.6747L205.323 37.7619C204.227 38.0964 203.328 38.6913 202.692 39.5732L204.314 40.7426ZM205.907 39.6747C206.616 39.4582 207.229 39.4768 207.786 39.6823L208.478 37.806C207.464 37.4318 206.399 37.4332 205.323 37.7619L205.907 39.6747ZM207.81 39.691C208.155 39.808 208.567 40.1683 208.88 41.1925L210.793 40.6083C210.389 39.2863 209.665 38.209 208.454 37.7974L207.81 39.691ZM208.88 41.1925C209.169 42.1395 209.054 42.7075 208.802 43.0765L210.453 44.2052C211.164 43.1646 211.189 41.9057 210.793 40.6083L208.88 41.1925ZM208.816 43.0562C208.469 43.5379 207.971 43.8959 207.262 44.1124L207.846 46.0252C208.923 45.6964 209.807 45.1025 210.439 44.2256L208.816 43.0562ZM207.262 44.1124C206.521 44.3387 205.896 44.3198 205.345 44.1164L204.652 45.9928C205.672 46.3691 206.751 46.3596 207.846 46.0252L207.262 44.1124ZM205.368 44.1253C204.953 43.9602 204.54 43.5532 204.251 42.6062L202.338 43.1904C202.734 44.4878 203.458 45.5183 204.629 45.9839L205.368 44.1253Z" fill="#A8A7A7" fill-opacity="0.7"/>
<ellipse cx="156.784" cy="133.108" rx="6.5" ry="5" fill="#C18787"/>
<circle cx="142.309" cy="113.907" r="5" transform="rotate(-3.66376 142.309 113.907)" fill="#534D4D"/>
<circle cx="167.258" cy="112.309" r="5" transform="rotate(-3.66376 167.258 112.309)" fill="#534D4D"/>
<circle cx="143.322" cy="112.045" r="2" transform="rotate(-4.67444 143.322 112.045)" fill="#D9D9D9"/>
<circle cx="166.245" cy="110.171" r="2" transform="rotate(-4.67444 166.245 110.171)" fill="#D9D9D9"/>
<defs>
<filter id="filter0_d_1549_2119" x="90.8608" y="34.0756" width="120.986" height="126.898" filterUnits="userSpaceOnUse" color-interpolation-filters="sRGB">
<feFlood flood-opacity="0" result="BackgroundImageFix"/>
<feColorMatrix in="SourceAlpha" type="matrix" values="0 0 0 0 0 0 0 0 0 0 0 0 0 0 0 0 0 0 127 0" result="hardAlpha"/>
<feOffset dy="4"/>
<feGaussianBlur stdDeviation="2"/>
<feComposite in2="hardAlpha" operator="out"/>
<feColorMatrix type="matrix" values="0 0 0 0 0 0 0 0 0 0 0 0 0 0 0 0 0 0 0.25 0"/>
<feBlend mode="normal" in2="BackgroundImageFix" result="effect1_dropShadow_1549_2119"/>
<feBlend mode="normal" in="SourceGraphic" in2="effect1_dropShadow_1549_2119" result="shape"/>
</filter>
</defs>
</svg>
