<svg width="361" height="395" viewBox="0 0 361 395" fill="none" xmlns="http://www.w3.org/2000/svg">
<path d="M358.936 195.845C359.791 304.008 280.481 392.22 181.791 392.873C83.1014 393.527 2.40413 306.373 1.54877 198.211C0.693407 90.0483 80.0038 1.8358 178.694 1.18264C277.383 0.529484 358.08 87.683 358.936 195.845Z" fill="url(#paint0_radial_1160_1934)"/>
<g filter="url(#filter0_d_1160_1934)">
<rect width="174.951" height="33.1801" rx="13" transform="matrix(0.828708 -0.565813 0.63019 0.771818 43.7988 284.178)" fill="#9B6F57"/>
<rect width="174.951" height="33.1801" rx="13" transform="matrix(0.828708 -0.565813 0.63019 0.771818 43.7988 284.178)" stroke="#9F2929" style="mix-blend-mode:lighten"/>
<path d="M223.97 327.721C216.444 329.557 208.155 325.189 205.455 317.965L157.882 190.654C155.182 183.43 159.095 176.086 166.621 174.25L172.608 172.789C180.134 170.954 188.423 175.322 191.123 182.546L238.696 309.856C241.396 317.08 237.483 324.425 229.957 326.26L223.97 327.721Z" fill="#885A3F"/>
<path d="M223.97 327.721C216.444 329.557 208.155 325.189 205.455 317.965L157.882 190.654C155.182 183.43 159.095 176.086 166.621 174.25L172.608 172.789C180.134 170.954 188.423 175.322 191.123 182.546L238.696 309.856C241.396 317.08 237.483 324.425 229.957 326.26L223.97 327.721Z" stroke="#9F2929" style="mix-blend-mode:lighten"/>
<rect width="166.981" height="33.7043" rx="10" transform="matrix(-0.551999 -0.829722 0.906347 -0.429476 239.38 311.166)" fill="#6B452F"/>
<rect width="166.981" height="33.7043" rx="10" transform="matrix(-0.551999 -0.829722 0.906347 -0.429476 239.38 311.166)" stroke="#9F2929" style="mix-blend-mode:lighten"/>
<rect width="167.906" height="34.4412" rx="8" transform="matrix(0.693747 -0.725167 0.768708 0.634146 77.6997 297.83)" fill="#785542"/>
<rect width="167.906" height="34.4412" rx="8" transform="matrix(0.693747 -0.725167 0.768708 0.634146 77.6997 297.83)" stroke="#9F2929" style="mix-blend-mode:lighten"/>
<rect width="175.731" height="33.2878" rx="16" transform="matrix(-0.84364 -0.531067 0.670558 -0.746614 278.958 290.474)" fill="#876755"/>
<rect width="175.731" height="33.2878" rx="16" transform="matrix(-0.84364 -0.531067 0.670558 -0.746614 278.958 290.474)" stroke="#9F2929" style="mix-blend-mode:lighten"/>
<path d="M64.9371 295.633C62.8032 293.329 57.008 288.799 59.7159 286.877C62.8311 284.666 67.1896 290.94 69.7891 293.747C73.2319 297.465 68.7496 301.69 65.2112 301.67C62.0648 301.652 58.1607 296.332 56.1058 294.113C50.7688 288.349 53.3993 277.75 61.5148 281.446C67.1917 284.031 74.2308 289.307 76.4644 294.721" stroke="#9F2929" stroke-linecap="round" style="mix-blend-mode:lighten"/>
<path d="M100.753 305.051C98.1741 303.071 91.5435 299.409 93.7691 297.108C96.3295 294.461 101.936 300.063 105.078 302.476C109.239 305.671 105.78 310.516 102.325 311.008C99.2524 311.445 94.2954 306.725 91.8118 304.818C85.3614 299.865 85.6369 288.957 94.35 291.453C100.445 293.2 108.45 297.423 111.798 302.478" stroke="#9F2929" stroke-linecap="round" style="mix-blend-mode:lighten"/>
<path d="M228.939 317.43C225.731 318.355 218.863 321.484 217.761 318.579C216.494 315.236 224.72 313.907 228.629 312.78C233.805 311.288 236.742 316.471 235.479 319.363C234.355 321.935 227.307 323.232 224.218 324.123C216.193 326.436 205.804 320.492 212.596 315.163C217.347 311.436 225.448 307.554 232.01 307.659" stroke="#9F2929" stroke-linecap="round" style="mix-blend-mode:lighten"/>
<path d="M254.329 294.203C251.414 295.739 245.445 300.149 243.685 297.529C241.659 294.515 249.379 291.595 252.93 289.724C257.633 287.246 261.722 291.727 261.17 294.801C260.679 297.533 254.103 300.191 251.296 301.67C244.005 305.511 232.459 301.757 237.836 295.213C241.596 290.636 248.592 285.247 255.025 284.055" stroke="#9F2929" stroke-linecap="round" style="mix-blend-mode:lighten"/>
<path d="M283.134 269.455C280.637 271.483 275.824 276.872 273.476 274.638C270.774 272.068 277.658 267.814 280.699 265.342C284.728 262.069 289.802 265.693 289.989 268.79C290.154 271.544 284.33 275.334 281.926 277.288C275.681 282.362 263.461 280.806 267.187 273.446C269.794 268.298 275.382 261.769 281.413 259.434" stroke="#9F2929" stroke-linecap="round" style="mix-blend-mode:lighten"/>
<path d="M123.586 259.105L113.736 270.693L103.885 282.281" stroke="#624332"/>
<path d="M138.954 260.992L134.828 266.181L130.702 271.371" stroke="#624332"/>
<path d="M144.215 269.484L133.849 282.222L123.483 294.96" stroke="#624332"/>
<path d="M191.556 265.71L197.5 280.63L203.445 295.551" stroke="#774E37"/>
<path d="M224.562 261.935L230.751 271.371L236.939 280.807" stroke="#8E6045"/>
<path d="M244.159 273.258L246.737 277.032L249.316 280.807" stroke="#8E6045"/>
<path d="M214.764 267.125L219.921 275.023C220.928 276.497 221.492 277.324 222.499 278.798M232.739 288.158L230.16 284.384" stroke="#8E6045"/>
<path d="M216.311 254.387L222.5 263.823L228.688 273.258" stroke="#8E6045"/>
<path d="M212.186 274.202L219.855 288.448L227.525 302.695" stroke="#774E37"/>
<path d="M235.908 231.741L250.37 240.524L264.833 249.308" stroke="#947360"/>
<path d="M244.159 240.233L256.02 246.838L267.882 253.443" stroke="#947360"/>
<path d="M247.253 258.161L255.505 262.879L263.756 267.597" stroke="#947360"/>
<path d="M225.594 250.613L233.845 255.33L242.097 260.048" stroke="#947360"/>
<path d="M226.625 237.402L234.876 242.12L243.128 246.838" stroke="#947360"/>
<path d="M206.795 290.881L210.122 299.206L213.45 307.531" stroke="#774E37"/>
<path d="M209.091 286.468L210.872 291.491L212.652 296.513" stroke="#774E37"/>
<path d="M118.43 260.992L108.579 272.58L98.7287 284.168" stroke="#624332"/>
<path d="M93.9399 253.443L81.3786 262.578L68.8173 271.713" stroke="#8F654E"/>
<path d="M112.505 248.725L99.9436 257.86L87.3823 266.995" stroke="#8F654E"/>
<path d="M88.4136 277.032L83.2565 280.978L78.0994 284.923" stroke="#8F654E"/>
</g>
<defs>
<filter id="filter0_d_1160_1934" x="44.709" y="160.922" width="254.125" height="175.7" filterUnits="userSpaceOnUse" color-interpolation-filters="sRGB">
<feFlood flood-opacity="0" result="BackgroundImageFix"/>
<feColorMatrix in="SourceAlpha" type="matrix" values="0 0 0 0 0 0 0 0 0 0 0 0 0 0 0 0 0 0 127 0" result="hardAlpha"/>
<feOffset dy="4"/>
<feGaussianBlur stdDeviation="2"/>
<feComposite in2="hardAlpha" operator="out"/>
<feColorMatrix type="matrix" values="0 0 0 0 0 0 0 0 0 0 0 0 0 0 0 0 0 0 0.25 0"/>
<feBlend mode="normal" in2="BackgroundImageFix" result="effect1_dropShadow_1160_1934"/>
<feBlend mode="normal" in="SourceGraphic" in2="effect1_dropShadow_1160_1934" result="shape"/>
</filter>
<radialGradient id="paint0_radial_1160_1934" cx="0" cy="0" r="1" gradientUnits="userSpaceOnUse" gradientTransform="translate(177.14 213.125) rotate(89.5469) scale(155.24 141.643)">
<stop stop-color="#FEFEFE"/>
<stop offset="0.0001" stop-color="#FEFCF8" stop-opacity="0.975706"/>
<stop offset="0.9998" stop-color="#FFBA07" stop-opacity="0.028206"/>
<stop offset="0.9999" stop-color="#FFB800" stop-opacity="0"/>
<stop offset="1" stop-color="#FFB800" stop-opacity="0"/>
</radialGradient>
</defs>
</svg>
